<svg xmlns="http://www.w3.org/2000/svg" width="50.981" height="50.909" viewBox="0 0 50.981 50.909"><g transform="translate(-1642.658 -3326.135)"><ellipse cx="16.906" cy="19.296" rx="16.906" ry="19.296" transform="translate(1651.244 3332.293)" fill="#3991d0"/><g transform="translate(1642.658 3326.135)"><path d="M18.412,21.886c0,1.614.147,1.467,1.247,2.934A39.913,39.913,0,0,0,24.94,30.1c.954.734,1.834,1.614,3.154,1.614,2.054,0,3.521-3.668,5.061-3.668.587,0,2.494,2.127,2.934,2.641.44.44,2.714,2.494,2.714,2.934v.367c0,.44-2.934,3.814-5.942,3.814-2.787,0-5.5-1.32-7.775-2.714A22.2,22.2,0,0,1,21.492,32.6,43.714,43.714,0,0,1,17.751,29c-.22-.293-.367-.367-.587-.66a26.956,26.956,0,0,1-3.814-6.015,9.113,9.113,0,0,1-1.174-4.7,6.823,6.823,0,0,1,1.394-3.814c.587-.734,2.054-2.494,2.934-2.494.587,0,2.2,1.834,2.641,2.347l2.567,2.567c1.174,1.174.22,1.687-1.027,2.861-.587.587-2.2,1.981-2.2,2.861ZM24.427-.927h2.127a23.5,23.5,0,0,1,5.428.807,25.057,25.057,0,0,1,8.289,3.814,26.964,26.964,0,0,1,6.088,6.162,23.563,23.563,0,0,1,3.154,6.015c.293.734.44,1.467.734,2.274a23.528,23.528,0,0,1,.734,5.281c0,5.135-.44,7.555-2.421,12.03l-.513,1.027A24.18,24.18,0,0,1,43.572,42.5a24.614,24.614,0,0,1-11.663,6.675,22.476,22.476,0,0,1-5.355.734H24.427A23.5,23.5,0,0,1,19,49.1a32.566,32.566,0,0,1-4.475-1.614A26.427,26.427,0,0,1,3.374,37.217a26.206,26.206,0,0,1-1.907-4.108C.147,29.882,0,26.874,0,23.353a23.979,23.979,0,0,1,1.54-7.7,18.452,18.452,0,0,1,.88-2.127A26.427,26.427,0,0,1,12.69,2.374,26.206,26.206,0,0,1,16.8.467c.734-.293,1.467-.44,2.274-.734A22.475,22.475,0,0,1,24.427-1Z" transform="translate(0 1)" fill="#fff" fill-rule="evenodd"/></g></g></svg>