<svg xmlns="http://www.w3.org/2000/svg" width="49.807" height="49.834" viewBox="0 0 49.807 49.834"><g transform="translate(0 0)"><path d="M36.715,16.625l2-.429c-.286,1.857-2.286,2.286-2.571,3.429-.714,3,0,8.714-5.714,12.857-7.286,5.429-17.286,2.857-18.715.571,2.714.143,6-.429,7.714-2-1.143-.857-3.571-.714-4.714-4l.143-.143,1.429-.429A5.217,5.217,0,0,1,12.714,21.2l1.857.429c-.143-.286-3.714-4.714-1-7.143a13.053,13.053,0,0,1,2.286,1.857,16.887,16.887,0,0,0,9,3.714c0-6.286,5-8.286,9.143-5.571,1,.714.857.571,2.143.143a11.2,11.2,0,0,1,2-.714C38,15.34,37.143,15.625,36.715,16.625ZM0,24.625A25.615,25.615,0,0,0,7.286,42.2C14.429,49.34,26.143,51.769,35,47.34c5.286-2.571,10-6.572,12.429-12.286,3-7,3.286-13.429.143-20.572a24.421,24.421,0,0,0-5-7.286A24.709,24.709,0,0,0,14.429,2.054,24.939,24.939,0,0,0,0,24.625Z" transform="translate(0 0.271)" fill="#3991d0" fill-rule="evenodd"/><ellipse cx="18.143" cy="18.286" rx="18.143" ry="18.286" transform="translate(6.714 6.61)" fill="#3991d0"/><path d="M72.429,103.494c4,2.429,4.571,4.571,8.572,1.714.714-.571,1.714-1.143,2.571-1.714a5.338,5.338,0,0,0,1,.857c1,.857,6.714,6,6.714,7H64.857c.143-1,7.286-7.857,7.714-8Zm19.715-6.143c0,3.143.143,9.286,0,12.143l-7-7c.429-.714,6.286-4.714,7.143-5.143ZM63.857,109.494V97.351L71,102.494a21.369,21.369,0,0,1-1.857,1.571l-5.286,5.286Zm0-14.286c-.143-2.143-.429-3.429,2-3.429H90.143c1.286,0,2,.286,2,1.714,0,1.857.143,1.571-.714,2.143l-6.143,4.429c-6.572,4.714-6.714,5.714-9.143,3.857l-8.714-6.286c-1.143-.857-2.286-1.714-3.429-2.429Zm.857-5.143c-2.143.286-2.714,2-2.714,4.286v13.714c0,2.429,0,4.286,2,5,.714.286,25.715.429,27.286.143,2-.429,2.571-1.857,2.571-4.286V95.208c0-2.429-.143-4.429-2.143-5-.714-.286-25.572-.429-27.143-.143Z" transform="translate(-53.143 -77.027)" fill="#fefefe" fill-rule="evenodd"/><path d="M81.889,113.923c-3.9,0-8.269-.031-11.686-.083-5.876-.09-6.244-.19-6.4-.252a3.165,3.165,0,0,1-2.089-2.223,12.213,12.213,0,0,1-.272-3.3V94.351a6.5,6.5,0,0,1,.622-3.161,3.213,3.213,0,0,1,2.41-1.653l0-.021c.788-.143,6.259-.165,9.45-.165,3.879,0,8.224.031,11.623.083,5.606.086,6.173.182,6.348.244a3.085,3.085,0,0,1,2.175,2.161,11.349,11.349,0,0,1,.349,3.37v13.714c0,2.07-.358,4.263-3.013,4.832l-.017,0C90.6,113.9,85.1,113.923,81.889,113.923Zm-17.72-1.391c.769.141,9.331.273,17.72.273h0c6.22,0,8.873-.075,9.288-.145,1.545-.335,2.12-1.349,2.12-3.737V95.208c0-2.687-.26-4.041-1.738-4.463l-.014,0c-.756-.141-9.278-.273-17.626-.273-5.789,0-8.473.066-9.134.132v.019c-1.563.208-2.229,1.324-2.229,3.732v13.714C62.559,110.613,62.631,111.973,64.169,112.533Zm27.676-.622H64.213l.091-.638c.036-.255.122-.851,3.908-4.638.881-.88,1.833-1.8,2.614-2.524,1.292-1.2,1.439-1.247,1.569-1.29l.223.361.1-.166c.937.569,1.679,1.114,2.333,1.595,1.15.845,1.91,1.4,2.786,1.4a5.319,5.319,0,0,0,2.826-1.253,20.012,20.012,0,0,1,1.721-1.169c.294-.185.6-.377.877-.564l.381-.254.324.324a4.815,4.815,0,0,0,.915.787l.028.019.026.022c.527.452,2.2,1.952,3.759,3.471,2.907,2.84,3.151,3.53,3.151,3.953Zm-25.978-1.118h24.48a29.439,29.439,0,0,0-2.563-2.721c-1.477-1.436-3.032-2.828-3.551-3.274a4.843,4.843,0,0,1-.733-.588c-.173.111-.347.221-.518.329a19.059,19.059,0,0,0-1.632,1.107l-.024.018a6.213,6.213,0,0,1-3.488,1.47h0c-1.243,0-2.216-.715-3.448-1.621-.562-.413-1.191-.876-1.949-1.353-.648.563-1.978,1.806-3.461,3.29C67.318,109.111,66.366,110.172,65.867,110.793Zm26.772-.013-8.2-8.2.225-.374c.092-.154.338-.563,3.351-2.7,1.329-.94,2.794-1.924,3.569-2.4V97.1h0v-.312h.7l.132.559H92.7v.077c0,.949.014,2.173.028,3.469.033,3.106.071,6.626-.029,8.625Zm-6.714-8.295,5.7,5.7c.042-2.007.012-4.778-.015-7.279-.009-.88-.019-1.728-.024-2.48C89.91,99.515,86.92,101.621,85.924,102.485Zm-21.672,7.261L64,109.494h-.7V96.26l8.562,6.164-.465.465a17.1,17.1,0,0,1-1.55,1.331l-.33.262Zm.164-11.3V108l4.354-4.354.024-.019.357-.284c.349-.277.667-.529.97-.795Zm13.589,6.917a3.673,3.673,0,0,1-2.2-.988l-8.717-6.288c-1.07-.8-2.175-1.631-3.255-2.317h-.5l-.035-.522c-.01-.155-.021-.305-.032-.451-.092-1.242-.164-2.223.463-2.9a2.746,2.746,0,0,1,2.127-.676H90.143c1.265,0,2.559.27,2.559,2.273,0,.266,0,.483.005.674a3.05,3.05,0,0,1-.089,1.112,1.407,1.407,0,0,1-.67.685c-.06.038-.126.081-.2.131l-6.134,4.422c-1.279.918-2.328,1.7-3.17,2.337C80.151,104.575,79.106,105.36,78.005,105.36ZM67.76,97.187l8.723,6.292a2.723,2.723,0,0,0,1.523.763c.728,0,1.743-.762,3.766-2.28.847-.635,1.9-1.426,3.189-2.35l6.159-4.44c.084-.056.159-.1.225-.147.091-.058.193-.124.234-.159a5.328,5.328,0,0,0,.012-.683c0-.186-.006-.416-.006-.689,0-.939-.269-1.155-1.441-1.155H65.857a1.866,1.866,0,0,0-1.308.319c-.3.318-.239,1.084-.167,2.055l.006.08C65.52,95.507,66.658,96.36,67.76,97.187Z" transform="translate(-53.143 -77.027)" fill="#fefefe"/></g></svg>