<svg xmlns="http://www.w3.org/2000/svg" width="50.98" height="50.91" viewBox="0 0 50.98 50.91"><g transform="translate(-216 -501)"><ellipse cx="25.49" cy="25.455" rx="25.49" ry="25.455" transform="translate(216 501)" fill="#fff"/><g transform="translate(208.612 438.248)"><g transform="translate(17.397 76.565)"><rect width="23.22" height="23.283" transform="translate(3.87)" fill="#f1f5f7"/><path d="M256,164.651l11.61,9.193V155.7Zm0,0" transform="translate(-240.522 -150.561)" fill="#dce6ea"/><path d="M45.455,76.565h-.967l-11.61,9.193-11.61-9.193H20.3a2.907,2.907,0,0,0-2.9,2.91V96.938a2.908,2.908,0,0,0,2.9,2.91h.967V81.7l11.61,8.954L44.487,81.7V99.848h.967a2.908,2.908,0,0,0,2.9-2.91V79.475a2.907,2.907,0,0,0-2.9-2.91Zm0,0" transform="translate(-17.397 -76.565)" fill="#f84437"/></g></g></g></svg>