<svg xmlns="http://www.w3.org/2000/svg" width="55.362" height="54.822" viewBox="0 0 55.362 54.822"><g transform="translate(-911 -3487.399)"><ellipse cx="23.008" cy="26.262" rx="23.008" ry="26.262" transform="translate(915.184 3489.508)" fill="#3991d0"/><path d="M23.562,55.053V35.876H16.794a38.132,38.132,0,0,1-.188-8.085h6.769c.376-5.829-.752-10.153,2.82-13.913,3.008-3.2,8.461-3.2,13.725-2.256.376,1.316.188,5.264.188,6.769-2.632.188-5.64-.376-6.957,1.5-1.128,1.5-.94,5.452-.752,7.9H39.92a44.146,44.146,0,0,1-.94,6.957C38.6,37,37.475,35.5,32.4,36.064V55.241c3.948-.94,6.393-1.5,9.589-3.572a27.64,27.64,0,0,0,7.145-6.017c3.384-3.948,7.333-12.033,6.393-19.93A28.3,28.3,0,0,0,46.876,7.861C40.86,1.845,30.9-.976,22.058,1.093a26.833,26.833,0,0,0-9.213,3.948,28.026,28.026,0,0,0-3.76,2.82c-13.161,13.161-11.469,33.467,4.7,43.808a31.84,31.84,0,0,0,9.777,3.572Z" transform="translate(910.694 3486.98)" fill="#fff" fill-rule="evenodd"/></g></svg>