<svg xmlns="http://www.w3.org/2000/svg" xmlns:xlink="http://www.w3.org/1999/xlink" width="2099" height="498" viewBox="0 0 2099 498"><defs><linearGradient id="a" x1="0.079" y1="0.628" x2="0.772" y2="0.608" gradientUnits="objectBoundingBox"><stop offset="0" stop-color="#d400db" stop-opacity="0.788"/><stop offset="1" stop-color="#0d129b"/></linearGradient></defs><g transform="translate(0 -3100)"><rect width="2099" height="498" transform="translate(0 3100)" fill="url(#a)"/><path d="M1,1V497H2098V1H1M0,0H2099V498H0Z" transform="translate(0 3100)"/><circle cx="62.5" cy="62.5" r="62.5" transform="translate(1156 3331)" fill="rgba(145,38,200,0.36)" opacity="0.65"/><circle cx="62.5" cy="62.5" r="62.5" transform="translate(21 3183)" fill="rgba(145,38,200,0.36)" opacity="0.65"/><circle cx="62.5" cy="62.5" r="62.5" transform="translate(1952 3195)" fill="rgba(145,38,200,0.36)" opacity="0.65"/><circle cx="62.5" cy="62.5" r="62.5" transform="translate(337 3404)" fill="rgba(145,38,200,0.36)" opacity="0.65"/><circle cx="62.5" cy="62.5" r="62.5" transform="translate(337 3331)" fill="rgba(52,83,188,0.15)"/><circle cx="62.5" cy="62.5" r="62.5" transform="translate(608 3116)" fill="rgba(52,83,188,0.15)"/><circle cx="62.5" cy="62.5" r="62.5" transform="translate(1786 3436)" fill="rgba(145,38,200,0.36)" opacity="0.65"/><circle cx="62.5" cy="62.5" r="62.5" transform="translate(1786 3363)" fill="rgba(52,83,188,0.15)"/><circle cx="62.5" cy="62.5" r="62.5" transform="translate(21 3247)" fill="rgba(52,83,188,0.15)"/></g></svg>