<svg xmlns="http://www.w3.org/2000/svg" xmlns:xlink="http://www.w3.org/1999/xlink" width="411.08" height="235.21" viewBox="0 0 411.08 235.21"><defs><filter id="a"><feOffset dy="3" input="SourceAlpha"/><feGaussianBlur stdDeviation="3" result="b"/><feFlood flood-color="#fff" flood-opacity="0.161" result="c"/><feComposite operator="out" in="SourceGraphic" in2="b"/><feComposite operator="in" in="c"/><feComposite operator="in" in2="SourceGraphic"/></filter><filter id="d"><feOffset dy="3" input="SourceAlpha"/><feGaussianBlur stdDeviation="3" result="e"/><feFlood flood-color="#fff" flood-opacity="0.161" result="f"/><feComposite operator="out" in="SourceGraphic" in2="e"/><feComposite operator="in" in="f"/><feComposite operator="in" in2="SourceGraphic"/></filter><filter id="g"><feOffset dy="3" input="SourceAlpha"/><feGaussianBlur stdDeviation="3" result="h"/><feFlood flood-color="#fff" flood-opacity="0.161" result="i"/><feComposite operator="out" in="SourceGraphic" in2="h"/><feComposite operator="in" in="i"/><feComposite operator="in" in2="SourceGraphic"/></filter><filter id="j"><feOffset dy="3" input="SourceAlpha"/><feGaussianBlur stdDeviation="3" result="k"/><feFlood flood-color="#fff" flood-opacity="0.161" result="l"/><feComposite operator="out" in="SourceGraphic" in2="k"/><feComposite operator="in" in="l"/><feComposite operator="in" in2="SourceGraphic"/></filter><filter id="m"><feOffset dy="3" input="SourceAlpha"/><feGaussianBlur stdDeviation="3" result="n"/><feFlood flood-color="#fff" flood-opacity="0.161" result="o"/><feComposite operator="out" in="SourceGraphic" in2="n"/><feComposite operator="in" in="o"/><feComposite operator="in" in2="SourceGraphic"/></filter><filter id="p"><feOffset dy="3" input="SourceAlpha"/><feGaussianBlur stdDeviation="3" result="q"/><feFlood flood-color="#fff" flood-opacity="0.161" result="r"/><feComposite operator="out" in="SourceGraphic" in2="q"/><feComposite operator="in" in="r"/><feComposite operator="in" in2="SourceGraphic"/></filter><filter id="s"><feOffset dy="3" input="SourceAlpha"/><feGaussianBlur stdDeviation="3" result="t"/><feFlood flood-color="#fff" flood-opacity="0.161" result="u"/><feComposite operator="out" in="SourceGraphic" in2="t"/><feComposite operator="in" in="u"/><feComposite operator="in" in2="SourceGraphic"/></filter><filter id="v"><feOffset dy="3" input="SourceAlpha"/><feGaussianBlur stdDeviation="3" result="w"/><feFlood flood-color="#fff" flood-opacity="0.161" result="x"/><feComposite operator="out" in="SourceGraphic" in2="w"/><feComposite operator="in" in="x"/><feComposite operator="in" in2="SourceGraphic"/></filter><filter id="y"><feOffset dy="3" input="SourceAlpha"/><feGaussianBlur stdDeviation="3" result="z"/><feFlood flood-color="#fff" flood-opacity="0.161" result="aa"/><feComposite operator="out" in="SourceGraphic" in2="z"/><feComposite operator="in" in="aa"/><feComposite operator="in" in2="SourceGraphic"/></filter><filter id="ab"><feOffset dy="3" input="SourceAlpha"/><feGaussianBlur stdDeviation="3" result="ac"/><feFlood flood-color="#fff" flood-opacity="0.161" result="ad"/><feComposite operator="out" in="SourceGraphic" in2="ac"/><feComposite operator="in" in="ad"/><feComposite operator="in" in2="SourceGraphic"/></filter><filter id="ae"><feOffset dy="3" input="SourceAlpha"/><feGaussianBlur stdDeviation="3" result="af"/><feFlood flood-color="#fff" flood-opacity="0.161" result="ag"/><feComposite operator="out" in="SourceGraphic" in2="af"/><feComposite operator="in" in="ag"/><feComposite operator="in" in2="SourceGraphic"/></filter><filter id="ah"><feOffset dy="3" input="SourceAlpha"/><feGaussianBlur stdDeviation="3" result="ai"/><feFlood flood-color="#fff" flood-opacity="0.161" result="aj"/><feComposite operator="out" in="SourceGraphic" in2="ai"/><feComposite operator="in" in="aj"/><feComposite operator="in" in2="SourceGraphic"/></filter><filter id="ak"><feOffset dy="3" input="SourceAlpha"/><feGaussianBlur stdDeviation="3" result="al"/><feFlood flood-color="#fff" flood-opacity="0.161" result="am"/><feComposite operator="out" in="SourceGraphic" in2="al"/><feComposite operator="in" in="am"/><feComposite operator="in" in2="SourceGraphic"/></filter><filter id="an"><feOffset dy="3" input="SourceAlpha"/><feGaussianBlur stdDeviation="3" result="ao"/><feFlood flood-color="#fff" flood-opacity="0.161" result="ap"/><feComposite operator="out" in="SourceGraphic" in2="ao"/><feComposite operator="in" in="ap"/><feComposite operator="in" in2="SourceGraphic"/></filter><filter id="aq"><feOffset dy="3" input="SourceAlpha"/><feGaussianBlur stdDeviation="3" result="ar"/><feFlood flood-color="#fff" flood-opacity="0.161" result="as"/><feComposite operator="out" in="SourceGraphic" in2="ar"/><feComposite operator="in" in="as"/><feComposite operator="in" in2="SourceGraphic"/></filter><filter id="at"><feOffset dy="3" input="SourceAlpha"/><feGaussianBlur stdDeviation="3" result="au"/><feFlood flood-color="#fff" flood-opacity="0.161" result="av"/><feComposite operator="out" in="SourceGraphic" in2="au"/><feComposite operator="in" in="av"/><feComposite operator="in" in2="SourceGraphic"/></filter><filter id="aw"><feOffset dy="3" input="SourceAlpha"/><feGaussianBlur stdDeviation="3" result="ax"/><feFlood flood-color="#fff" flood-opacity="0.161" result="ay"/><feComposite operator="out" in="SourceGraphic" in2="ax"/><feComposite operator="in" in="ay"/><feComposite operator="in" in2="SourceGraphic"/></filter><filter id="az"><feOffset dy="3" input="SourceAlpha"/><feGaussianBlur stdDeviation="3" result="ba"/><feFlood flood-color="#fff" flood-opacity="0.161" result="bb"/><feComposite operator="out" in="SourceGraphic" in2="ba"/><feComposite operator="in" in="bb"/><feComposite operator="in" in2="SourceGraphic"/></filter><filter id="bc"><feOffset dy="3" input="SourceAlpha"/><feGaussianBlur stdDeviation="3" result="bd"/><feFlood flood-color="#fff" flood-opacity="0.161" result="be"/><feComposite operator="out" in="SourceGraphic" in2="bd"/><feComposite operator="in" in="be"/><feComposite operator="in" in2="SourceGraphic"/></filter><filter id="bf" x="73.683" y="113.577" width="337.397" height="121.633" filterUnits="userSpaceOnUse"><feOffset dy="9" input="SourceAlpha"/><feGaussianBlur stdDeviation="16" result="bg"/><feFlood flood-opacity="0.302"/><feComposite operator="in" in2="bg"/><feComposite in="SourceGraphic"/></filter><filter id="bh" x="73.683" y="113.577" width="337.397" height="121.633" filterUnits="userSpaceOnUse"><feOffset dy="3" input="SourceAlpha"/><feGaussianBlur stdDeviation="3" result="bi"/><feFlood flood-color="#fff" flood-opacity="0.161" result="bj"/><feComposite operator="out" in="SourceGraphic" in2="bi"/><feComposite operator="in" in="bj"/><feComposite operator="in" in2="SourceGraphic"/></filter></defs><g transform="translate(0 0)"><g transform="translate(0 0)"><g transform="translate(0 0)"><g data-type="innerShadowGroup"><ellipse cx="4.544" cy="4.465" rx="4.544" ry="4.465" transform="translate(78.323 163.035)" fill="#fff"/><g transform="matrix(1, 0, 0, 1, 0, 0)" filter="url(#a)"><ellipse cx="4.544" cy="4.465" rx="4.544" ry="4.465" transform="translate(78.32 163.04)" fill="#fff"/></g></g><g data-type="innerShadowGroup"><ellipse cx="3.293" cy="3.238" rx="3.293" ry="3.238" transform="translate(92.581 165.489)" fill="#fff"/><g transform="matrix(1, 0, 0, 1, 0, 0)" filter="url(#d)"><ellipse cx="3.293" cy="3.238" rx="3.293" ry="3.238" transform="translate(92.58 165.49)" fill="#fff"/></g></g><g data-type="innerShadowGroup"><ellipse cx="1.646" cy="1.615" rx="1.646" ry="1.615" transform="translate(103.481 167.112)" fill="#fff"/><g transform="matrix(1, 0, 0, 1, 0, 0)" filter="url(#g)"><ellipse cx="1.646" cy="1.615" rx="1.646" ry="1.615" transform="translate(103.48 167.11)" fill="#fff"/></g></g><g data-type="innerShadowGroup"><ellipse cx="0.823" cy="0.807" rx="0.823" ry="0.807" transform="translate(110.028 165.498)" fill="#fff"/><g transform="matrix(1, 0, 0, 1, 0, 0)" filter="url(#j)"><ellipse cx="0.823" cy="0.807" rx="0.823" ry="0.807" transform="translate(110.03 165.5)" fill="#fff"/></g></g><g data-type="innerShadowGroup"><ellipse cx="0.246" cy="0.246" rx="0.246" ry="0.246" transform="translate(114.025 163.756)" fill="#fff"/><g transform="matrix(1, 0, 0, 1, 0, 0)" filter="url(#m)"><ellipse cx="0.246" cy="0.246" rx="0.246" ry="0.246" transform="translate(114.03 163.76)" fill="#fff"/></g></g><g data-type="innerShadowGroup"><ellipse cx="5.438" cy="5.336" rx="5.438" ry="5.336" transform="translate(61.272 160.035)" fill="#fff"/><g transform="matrix(1, 0, 0, 1, 0, 0)" filter="url(#p)"><ellipse cx="5.438" cy="5.336" rx="5.438" ry="5.336" transform="translate(61.27 160.04)" fill="#fff"/></g></g><g data-type="innerShadowGroup"><ellipse cx="6.389" cy="6.27" rx="6.389" ry="6.27" transform="translate(43.959 151.137)" fill="#fff"/><g transform="matrix(1, 0, 0, 1, 0, 0)" filter="url(#s)"><ellipse cx="6.389" cy="6.27" rx="6.389" ry="6.27" transform="translate(43.96 151.14)" fill="#fff"/></g></g><g data-type="innerShadowGroup"><ellipse cx="7.402" cy="7.267" rx="7.402" ry="7.267" transform="translate(29.148 137.83)" fill="#fff"/><g transform="matrix(1, 0, 0, 1, 0, 0)" filter="url(#v)"><ellipse cx="7.402" cy="7.267" rx="7.402" ry="7.267" transform="translate(29.15 137.83)" fill="#fff"/></g></g><g data-type="innerShadowGroup"><ellipse cx="8.922" cy="8.755" rx="8.922" ry="8.755" transform="translate(14.265 119.013)" fill="#fff"/><g transform="matrix(1, 0, 0, 1, 0, 0)" filter="url(#y)"><ellipse cx="8.922" cy="8.755" rx="8.922" ry="8.755" transform="translate(14.27 119.01)" fill="#fff"/></g></g><g data-type="innerShadowGroup"><ellipse cx="10.829" cy="10.624" rx="10.829" ry="10.624" transform="translate(3.428 95.32)" fill="#fff"/><g transform="matrix(1, 0, 0, 1, 0, 0)" filter="url(#ab)"><ellipse cx="10.829" cy="10.624" rx="10.829" ry="10.624" transform="translate(3.43 95.32)" fill="#fff"/></g></g><g data-type="innerShadowGroup"><ellipse cx="12.547" cy="12.31" rx="12.547" ry="12.31" transform="translate(0 65.642)" fill="#fff"/><g transform="matrix(1, 0, 0, 1, 0, 0)" filter="url(#ae)"><ellipse cx="12.547" cy="12.31" rx="12.547" ry="12.31" transform="translate(0 65.64)" fill="#fff"/></g></g><g data-type="innerShadowGroup"><ellipse cx="14.994" cy="14.716" rx="14.994" ry="14.716" transform="translate(10.093 30.438)" fill="#fff"/><g transform="matrix(1, 0, 0, 1, 0, 0)" filter="url(#ah)"><ellipse cx="14.994" cy="14.716" rx="14.994" ry="14.716" transform="translate(10.09 30.44)" fill="#fff"/></g></g><g data-type="innerShadowGroup"><ellipse cx="17.416" cy="17.083" rx="17.416" ry="17.083" transform="translate(40.08)" fill="#fff"/><g transform="matrix(1, 0, 0, 1, 0, 0)" filter="url(#ak)"><ellipse cx="17.416" cy="17.083" rx="17.416" ry="17.083" transform="translate(40.08 0)" fill="#fff"/></g></g><g data-type="innerShadowGroup"><path d="M335.7,295.213H320.1l-11.439-17.495h-5.724v17.495H289.651V265.186h27.6a4.068,4.068,0,0,0,2.81-1.124,3.587,3.587,0,0,0,1.251-2.763v-2.763a3.444,3.444,0,0,0-1.251-2.715,4.179,4.179,0,0,0-2.81-1.085h-27.6V242h27.6a17.344,17.344,0,0,1,6.737,1.306,18.12,18.12,0,0,1,5.486,3.523,16.841,16.841,0,0,1,3.744,5.225,15.158,15.158,0,0,1,1.378,6.4v2.786a15.7,15.7,0,0,1-.792,4.916,16.719,16.719,0,0,1-2.169,4.394,15.827,15.827,0,0,1-3.412,3.57,17.411,17.411,0,0,1-4.615,2.525l5.272,8.106Z" transform="translate(-75.958 -162.932)" fill="#fff"/><g transform="matrix(1, 0, 0, 1, 0, 0)" filter="url(#an)"><path d="M335.7,295.213H320.1l-11.439-17.495h-5.724v17.495H289.651V265.186h27.6a4.068,4.068,0,0,0,2.81-1.124,3.587,3.587,0,0,0,1.251-2.763v-2.763a3.444,3.444,0,0,0-1.251-2.715,4.179,4.179,0,0,0-2.81-1.085h-27.6V242h27.6a17.344,17.344,0,0,1,6.737,1.306,18.12,18.12,0,0,1,5.486,3.523,16.841,16.841,0,0,1,3.744,5.225,15.158,15.158,0,0,1,1.378,6.4v2.786a15.7,15.7,0,0,1-.792,4.916,16.719,16.719,0,0,1-2.169,4.394,15.827,15.827,0,0,1-3.412,3.57,17.411,17.411,0,0,1-4.615,2.525l5.272,8.106Z" transform="translate(-75.96 -162.93)" fill="#fff"/></g></g><g data-type="innerShadowGroup"><path d="M248.757,112.634V99.92H208.59v53.173h.032v.008h40.135V140.57H221.541V132.3H243.6V119.592H221.541v-6.959Z" transform="translate(-43.465 -20.821)" fill="#fff"/><g transform="matrix(1, 0, 0, 1, 0, 0)" filter="url(#aq)"><path d="M248.757,112.634V99.92H208.59v53.173h.032v.008h40.135V140.57H221.541V132.3H243.6V119.592H221.541v-6.959Z" transform="translate(-43.46 -20.82)" fill="#fff"/></g></g><g data-type="innerShadowGroup"><path d="M93.23,242h40.143v12.666H93.23ZM128.2,261.672v12.706H93.23V261.7ZM93.23,295.213V282.674h40.143v12.539Z" transform="translate(-35.03 -162.932)" fill="#fff"/><g transform="matrix(1, 0, 0, 1, 0, 0)" filter="url(#at)"><path d="M93.23,242h40.143v12.666H93.23ZM128.2,261.672v12.706H93.23V261.7ZM93.23,295.213V282.674h40.143v12.539Z" transform="translate(-35.03 -162.93)" fill="#fff"/></g></g><g data-type="innerShadowGroup"><path d="M449.464,112.634V99.92H409.21V153.1h40.254V140.57h-27.3V132.3H444.3V119.592H422.161v-6.959Z" transform="translate(-85.269 -20.821)" fill="#fff"/><g transform="matrix(1, 0, 0, 1, 0, 0)" filter="url(#aw)"><path d="M449.464,112.634V99.92H409.21V153.1h40.254V140.57h-27.3V132.3H444.3V119.592H422.161v-6.959Z" transform="translate(-85.27 -20.82)" fill="#fff"/></g></g><g data-type="innerShadowGroup"><path d="M404.035,266.3v-.15H379.668v12.357h11.605v4.133l-12.595-.041a14.984,14.984,0,0,1-5.953-1.172,15.576,15.576,0,0,1-4.75-3.084,13.524,13.524,0,0,1-3.087-4.465,12.971,12.971,0,0,1-1.108-5.249,15.422,15.422,0,0,1,.413-3.515,9.5,9.5,0,0,1,1.52-3.341,13.454,13.454,0,0,1,5.589-5.288,16.149,16.149,0,0,1,7.338-1.742,15.367,15.367,0,0,1,7.33,1.963,15.9,15.9,0,0,1,6.1,5.882l11.534-6.444a32.166,32.166,0,0,0-5.027-6.167,27.036,27.036,0,0,0-6.088-4.378,32.906,32.906,0,0,0-6.753-2.644,27.159,27.159,0,0,0-6.966-.918,29.354,29.354,0,0,0-13.727,3.4,27.081,27.081,0,0,0-10.663,10.093v-.063A24.846,24.846,0,0,0,351.446,262a24.393,24.393,0,0,0-.918,6.618,25,25,0,0,0,2.066,10.006,26.445,26.445,0,0,0,5.82,8.486,28.767,28.767,0,0,0,8.922,5.913,28.381,28.381,0,0,0,11.344,2.224h25.546V266.305Z" transform="translate(-88.643 -162.942)" fill="#fff"/><g transform="matrix(1, 0, 0, 1, 0, 0)" filter="url(#az)"><path d="M404.035,266.3v-.15H379.668v12.357h11.605v4.133l-12.595-.041a14.984,14.984,0,0,1-5.953-1.172,15.576,15.576,0,0,1-4.75-3.084,13.524,13.524,0,0,1-3.087-4.465,12.971,12.971,0,0,1-1.108-5.249,15.422,15.422,0,0,1,.413-3.515,9.5,9.5,0,0,1,1.52-3.341,13.454,13.454,0,0,1,5.589-5.288,16.149,16.149,0,0,1,7.338-1.742,15.367,15.367,0,0,1,7.33,1.963,15.9,15.9,0,0,1,6.1,5.882l11.534-6.444a32.166,32.166,0,0,0-5.027-6.167,27.036,27.036,0,0,0-6.088-4.378,32.906,32.906,0,0,0-6.753-2.644,27.159,27.159,0,0,0-6.966-.918,29.354,29.354,0,0,0-13.727,3.4,27.081,27.081,0,0,0-10.663,10.093v-.063A24.846,24.846,0,0,0,351.446,262a24.393,24.393,0,0,0-.918,6.618,25,25,0,0,0,2.066,10.006,26.445,26.445,0,0,0,5.82,8.486,28.767,28.767,0,0,0,8.922,5.913,28.381,28.381,0,0,0,11.344,2.224h25.546V266.305Z" transform="translate(-88.64 -162.94)" fill="#fff"/></g></g><g data-type="innerShadowGroup"><path d="M180.529,99.09h-9.856L160.248,121.6v11.985H158.6v-12.35L147.994,99.09H133v53.364h11.946v-34.7l9.42,20h9.539l9.523-20.084v34.776h12.413V99.09Z" transform="translate(-27.714 -20.648)" fill="#fff"/><g transform="matrix(1, 0, 0, 1, 0, 0)" filter="url(#bc)"><path d="M180.529,99.09h-9.856L160.248,121.6v11.985H158.6v-12.35L147.994,99.09H133v53.364h11.946v-34.7l9.42,20h9.539l9.523-20.084v34.776h12.413V99.09Z" transform="translate(-27.71 -20.65)" fill="#fff"/></g></g></g><g data-type="innerShadowGroup"><g transform="matrix(1, 0, 0, 1, 0, 0)" filter="url(#bf)"><path d="M-567.534-44.288a8.827,8.827,0,0,1-2.972,6.338,10.432,10.432,0,0,1-7.066,2.311,9.386,9.386,0,0,1-7.546-3.229q-2.749-3.229-2.749-8.865v-1.525a14.955,14.955,0,0,1,1.267-6.338,9.5,9.5,0,0,1,3.623-4.206,10.151,10.151,0,0,1,5.474-1.465,10.172,10.172,0,0,1,6.955,2.311,9.481,9.481,0,0,1,3.05,6.493h-5.139a5.211,5.211,0,0,0-1.345-3.5,4.977,4.977,0,0,0-3.52-1.088,4.367,4.367,0,0,0-3.846,1.842q-1.276,1.842-1.31,5.713v1.884q0,4.043,1.225,5.91a4.285,4.285,0,0,0,3.863,1.867,5.074,5.074,0,0,0,3.555-1.088,4.913,4.913,0,0,0,1.345-3.366Zm28.249-3.6a15.061,15.061,0,0,1-1.3,6.457,9.8,9.8,0,0,1-3.726,4.283,10.306,10.306,0,0,1-5.559,1.508,10.377,10.377,0,0,1-5.533-1.49,9.9,9.9,0,0,1-3.769-4.257,14.625,14.625,0,0,1-1.354-6.364v-1.232a14.979,14.979,0,0,1,1.33-6.485,9.884,9.884,0,0,1,3.752-4.3,10.318,10.318,0,0,1,5.542-1.5,10.32,10.32,0,0,1,5.542,1.5,9.888,9.888,0,0,1,3.751,4.3A14.938,14.938,0,0,1-539.282-49Zm-5.208-1.131a10.509,10.509,0,0,0-1.4-5.961,4.578,4.578,0,0,0-4.008-2.039A4.583,4.583,0,0,0-553.9-55a10.4,10.4,0,0,0-1.422,5.9v1.216a10.634,10.634,0,0,0,1.4,5.927,4.566,4.566,0,0,0,4.043,2.105,4.524,4.524,0,0,0,3.974-2.03,10.557,10.557,0,0,0,1.4-5.919Zm20.043-11.906,6.409,18.09,6.372-18.09h6.749v24.942h-5.156V-42.8l.514-11.769-6.732,18.587h-3.529l-6.715-18.57.514,11.752v6.818h-5.139V-60.922Zm33.543,16.154v8.788h-5.138V-60.922h9.73a11.259,11.259,0,0,1,4.943,1.028,7.576,7.576,0,0,1,3.281,2.921,8.147,8.147,0,0,1,1.148,4.308,7.163,7.163,0,0,1-2.51,5.782,10.452,10.452,0,0,1-6.947,2.116Zm0-4.163h4.591a4.515,4.515,0,0,0,3.109-.959,3.489,3.489,0,0,0,1.071-2.741,4.115,4.115,0,0,0-1.079-2.964,4.031,4.031,0,0,0-2.981-1.165h-4.711Zm40.754-11.992v16.427a8.414,8.414,0,0,1-2.559,6.475,9.873,9.873,0,0,1-7,2.382,9.988,9.988,0,0,1-6.938-2.311,8.266,8.266,0,0,1-2.621-6.356V-60.922h5.139v16.463a4.753,4.753,0,0,0,1.174,3.572,4.5,4.5,0,0,0,3.246,1.122q4.334,0,4.4-4.557v-16.6Zm27.375,4.163h-7.64v20.78h-5.139v-20.78H-443.1v-4.163h20.317Zm22.322,9.97h-9.867v6.682h11.58v4.128h-16.72V-60.922h16.685v4.163h-11.546v5.944h9.867Zm18.347,1.679H-386.2v9.131h-5.139V-60.922h9.268q4.42,0,6.818,1.97a6.8,6.8,0,0,1,2.4,5.568,7.675,7.675,0,0,1-1.105,4.257,7.535,7.535,0,0,1-3.349,2.715l5.4,10.193v.24h-5.516Zm-4.094-4.163h4.146a4.245,4.245,0,0,0,3-.985A3.521,3.521,0,0,0-378-52.973a3.768,3.768,0,0,0-1-2.777,4.164,4.164,0,0,0-3.075-1.011H-386.2Zm34.57,6.75a2.637,2.637,0,0,0-1.028-2.235,13.486,13.486,0,0,0-3.7-1.644,26.234,26.234,0,0,1-4.231-1.7q-4.248-2.3-4.248-6.184A6.024,6.024,0,0,1-363.7-57.9a7.429,7.429,0,0,1,3.272-2.477,12.314,12.314,0,0,1,4.788-.891,11.209,11.209,0,0,1,4.762.969,7.583,7.583,0,0,1,3.246,2.732,7.152,7.152,0,0,1,1.156,4.009h-5.137a3.363,3.363,0,0,0-1.081-2.664,4.441,4.441,0,0,0-3.032-.949,4.74,4.74,0,0,0-2.931.8,2.512,2.512,0,0,0-1.045,2.1,2.406,2.406,0,0,0,1.229,2.037,13.844,13.844,0,0,0,3.606,1.542,15.612,15.612,0,0,1,6.39,3.272,6.516,6.516,0,0,1,2,4.866,6,6,0,0,1-2.45,5.079,10.724,10.724,0,0,1-6.6,1.842,12.735,12.735,0,0,1-5.242-1.053,8.3,8.3,0,0,1-3.606-2.886,7.393,7.393,0,0,1-1.242-4.249h5.155q0,4.128,4.934,4.128a4.8,4.8,0,0,0,2.861-.745,2.424,2.424,0,0,0,1.029-2.08Z" transform="translate(709.55 213.84)" fill="#fff"/></g><g transform="matrix(1, 0, 0, 1, 0, 0)" filter="url(#bh)"><path d="M-567.534-44.288a8.827,8.827,0,0,1-2.972,6.338,10.432,10.432,0,0,1-7.066,2.311,9.386,9.386,0,0,1-7.546-3.229q-2.749-3.229-2.749-8.865v-1.525a14.955,14.955,0,0,1,1.267-6.338,9.5,9.5,0,0,1,3.623-4.206,10.151,10.151,0,0,1,5.474-1.465,10.172,10.172,0,0,1,6.955,2.311,9.481,9.481,0,0,1,3.05,6.493h-5.139a5.211,5.211,0,0,0-1.345-3.5,4.977,4.977,0,0,0-3.52-1.088,4.367,4.367,0,0,0-3.846,1.842q-1.276,1.842-1.31,5.713v1.884q0,4.043,1.225,5.91a4.285,4.285,0,0,0,3.863,1.867,5.074,5.074,0,0,0,3.555-1.088,4.913,4.913,0,0,0,1.345-3.366Zm28.249-3.6a15.061,15.061,0,0,1-1.3,6.457,9.8,9.8,0,0,1-3.726,4.283,10.306,10.306,0,0,1-5.559,1.508,10.377,10.377,0,0,1-5.533-1.49,9.9,9.9,0,0,1-3.769-4.257,14.625,14.625,0,0,1-1.354-6.364v-1.232a14.979,14.979,0,0,1,1.33-6.485,9.884,9.884,0,0,1,3.752-4.3,10.318,10.318,0,0,1,5.542-1.5,10.32,10.32,0,0,1,5.542,1.5,9.888,9.888,0,0,1,3.751,4.3A14.938,14.938,0,0,1-539.282-49Zm-5.208-1.131a10.509,10.509,0,0,0-1.4-5.961,4.578,4.578,0,0,0-4.008-2.039A4.583,4.583,0,0,0-553.9-55a10.4,10.4,0,0,0-1.422,5.9v1.216a10.634,10.634,0,0,0,1.4,5.927,4.566,4.566,0,0,0,4.043,2.105,4.524,4.524,0,0,0,3.974-2.03,10.557,10.557,0,0,0,1.4-5.919Zm20.043-11.906,6.409,18.09,6.372-18.09h6.749v24.942h-5.156V-42.8l.514-11.769-6.732,18.587h-3.529l-6.715-18.57.514,11.752v6.818h-5.139V-60.922Zm33.543,16.154v8.788h-5.138V-60.922h9.73a11.259,11.259,0,0,1,4.943,1.028,7.576,7.576,0,0,1,3.281,2.921,8.147,8.147,0,0,1,1.148,4.308,7.163,7.163,0,0,1-2.51,5.782,10.452,10.452,0,0,1-6.947,2.116Zm0-4.163h4.591a4.515,4.515,0,0,0,3.109-.959,3.489,3.489,0,0,0,1.071-2.741,4.115,4.115,0,0,0-1.079-2.964,4.031,4.031,0,0,0-2.981-1.165h-4.711Zm40.754-11.992v16.427a8.414,8.414,0,0,1-2.559,6.475,9.873,9.873,0,0,1-7,2.382,9.988,9.988,0,0,1-6.938-2.311,8.266,8.266,0,0,1-2.621-6.356V-60.922h5.139v16.463a4.753,4.753,0,0,0,1.174,3.572,4.5,4.5,0,0,0,3.246,1.122q4.334,0,4.4-4.557v-16.6Zm27.375,4.163h-7.64v20.78h-5.139v-20.78H-443.1v-4.163h20.317Zm22.322,9.97h-9.867v6.682h11.58v4.128h-16.72V-60.922h16.685v4.163h-11.546v5.944h9.867Zm18.347,1.679H-386.2v9.131h-5.139V-60.922h9.268q4.42,0,6.818,1.97a6.8,6.8,0,0,1,2.4,5.568,7.675,7.675,0,0,1-1.105,4.257,7.535,7.535,0,0,1-3.349,2.715l5.4,10.193v.24h-5.516Zm-4.094-4.163h4.146a4.245,4.245,0,0,0,3-.985A3.521,3.521,0,0,0-378-52.973a3.768,3.768,0,0,0-1-2.777,4.164,4.164,0,0,0-3.075-1.011H-386.2Zm34.57,6.75a2.637,2.637,0,0,0-1.028-2.235,13.486,13.486,0,0,0-3.7-1.644,26.234,26.234,0,0,1-4.231-1.7q-4.248-2.3-4.248-6.184A6.024,6.024,0,0,1-363.7-57.9a7.429,7.429,0,0,1,3.272-2.477,12.314,12.314,0,0,1,4.788-.891,11.209,11.209,0,0,1,4.762.969,7.583,7.583,0,0,1,3.246,2.732,7.152,7.152,0,0,1,1.156,4.009h-5.137a3.363,3.363,0,0,0-1.081-2.664,4.441,4.441,0,0,0-3.032-.949,4.74,4.74,0,0,0-2.931.8,2.512,2.512,0,0,0-1.045,2.1,2.406,2.406,0,0,0,1.229,2.037,13.844,13.844,0,0,0,3.606,1.542,15.612,15.612,0,0,1,6.39,3.272,6.516,6.516,0,0,1,2,4.866,6,6,0,0,1-2.45,5.079,10.724,10.724,0,0,1-6.6,1.842,12.735,12.735,0,0,1-5.242-1.053,8.3,8.3,0,0,1-3.606-2.886,7.393,7.393,0,0,1-1.242-4.249h5.155q0,4.128,4.934,4.128a4.8,4.8,0,0,0,2.861-.745,2.424,2.424,0,0,0,1.029-2.08Z" transform="translate(709.55 213.84)" fill="#fff"/></g></g></g></g><text transform="translate(211.427 204.525)" fill="#fff" font-size="12" font-family="SegoeUI, Segoe UI"><tspan x="-67.588" y="0" xml:space="preserve"> Your perfect tech partner</tspan></text></svg>