<svg xmlns="http://www.w3.org/2000/svg" width="19.717" height="19.717" viewBox="0 0 19.717 19.717"><path d="M10.858,7.274a3.585,3.585,0,1,0,3.585,3.585A3.584,3.584,0,0,0,10.858,7.274Zm8.012,2.689a8.061,8.061,0,0,0-7.116-7.116V1H9.962V2.846A8.061,8.061,0,0,0,2.846,9.962H1v1.792H2.846a8.061,8.061,0,0,0,7.116,7.116v1.846h1.792V18.871a8.061,8.061,0,0,0,7.116-7.116h1.846V9.962H18.871Zm-8.012,7.17a6.274,6.274,0,1,1,6.274-6.274A6.269,6.269,0,0,1,10.858,17.132Z" transform="translate(-1 -1)" fill="#fff"/></svg>