<svg xmlns="http://www.w3.org/2000/svg" xmlns:xlink="http://www.w3.org/1999/xlink" width="54.6" height="54.82" viewBox="0 0 54.6 54.82"><defs><linearGradient id="a" x1="0.793" y1="0.068" x2="0.15" y2="1" gradientUnits="objectBoundingBox"><stop offset="0" stop-color="#fd01ac"/><stop offset="1" stop-color="#fd545b"/></linearGradient><linearGradient id="b" x1="0.5" x2="0.5" y2="1" gradientUnits="objectBoundingBox"><stop offset="0" stop-color="#ff0584"/><stop offset="1" stop-color="#f8154f"/></linearGradient><linearGradient id="c" x1="0.907" y1="0.133" x2="-0.431" y2="1.496" gradientUnits="objectBoundingBox"><stop offset="0" stop-color="#fd03d5"/><stop offset="0.719" stop-color="#ff811a"/><stop offset="0.802" stop-color="#ff8f04"/><stop offset="1" stop-color="#ff0b56"/></linearGradient></defs><g transform="translate(-0.001 -0.001)"><path d="M19.717,12.609c2.368-.273,13.434-.319,15.62.091a9.62,9.62,0,0,1,7.833,8.242c.273,2.231.319,13.889-.091,15.938a9.584,9.584,0,0,1-8.379,7.7c-2.368.273-13.844.273-15.893-.137a9.707,9.707,0,0,1-7.559-8.379c-.273-2.459-.319-13.57.091-15.665a9.482,9.482,0,0,1,8.334-7.7ZM0,26.635C0,32.51-.047,35.2,2.731,40.752c4.281,8.516,13.479,15.21,23.042,15.21,8.926,0,15.346-2.459,20.674-7.787a26.672,26.672,0,0,0,4.281-5.51c.41-.774.774-1.184,1.184-2.095,4.919-11.248,3.1-22.77-5.555-31.47a26.354,26.354,0,0,0-7.878-5.419,31.858,31.858,0,0,0-10.793-2.5C23.178.815,16.438,3.046,12.431,5.642a25.146,25.146,0,0,0-5.374,4.645,18.622,18.622,0,0,0-1.5,1.73,42.707,42.707,0,0,0-2.641,4.144A26.428,26.428,0,0,0,.09,26.635Z" transform="translate(0.001 -1.14)" fill="#fff" fill-rule="evenodd"/><rect width="33" height="34" rx="10" transform="translate(10.672 10.412)" fill="#fff"/><path d="M8,0H30a8,8,0,0,1,8,8V30a8,8,0,0,1-8,8H8a8,8,0,0,1-8-8V8A8,8,0,0,1,8,0Z" transform="translate(8.724 8.822)" fill="url(#a)"/><rect width="32" height="32" rx="7" transform="translate(11.724 11.822)" fill="#fff"/><path d="M492.519,498.826a4.984,4.984,0,1,0,9.745-2.1c-1.366-6.239-10.975-4.508-9.7,2.049Z" transform="translate(-470.111 -470.397)" fill-rule="evenodd" fill="url(#b)"/><path d="M332.175,329.386c-2.322,10.474-17.9,6.876-15.483-3.415C319.06,315.907,334.407,319.459,332.175,329.386Zm-.273-11.567c2.186-1.321,3.689,2,2,3.188a2.074,2.074,0,0,1-2.823-.455c-.907-1.552.049-2.232.821-2.733Zm-15.255-2.732c-3.734.774-5.328,3.37-5.328,7.514,0,3.1-.364,10.337.137,12.933.683,3.461,3.37,5.146,7.468,5.146,8.925-.046,18.17,2.322,18.124-7.468,0-6.694,1.412-13.662-2.414-16.849a7.939,7.939,0,0,0-5.146-1.457c-3.1,0-10.428-.319-12.933.182Z" transform="translate(-296.947 -300.441)" fill-rule="evenodd" fill="url(#c)"/></g></svg>