<svg width="61" height="61" viewBox="0 0 61 61" fill="none" xmlns="http://www.w3.org/2000/svg">
<circle cx="30.5" cy="30.5" r="30.5" fill="#0A66C2"/>
<path d="M23.2675 45H17.4625V26.3058H23.2675V45ZM20.3619 23.7558C18.5056 23.7558 17 22.2182 17 20.3619C17 19.4703 17.3542 18.6152 17.9847 17.9847C18.6151 17.3542 19.4703 17 20.3619 17C21.2535 17 22.1086 17.3542 22.7391 17.9847C23.3696 18.6152 23.7238 19.4703 23.7238 20.3619C23.7238 22.2182 22.2175 23.7558 20.3619 23.7558ZM44.9937 45H39.2013V35.8998C39.2013 33.731 39.1575 30.9497 36.1831 30.9497C33.165 30.9497 32.7025 33.306 32.7025 35.7435V45H26.9038V26.3058H32.4712V28.8559H32.5525C33.3275 27.3871 35.2206 25.8371 38.045 25.8371C43.92 25.8371 45 29.7059 45 34.731V45H44.9937Z" fill="white"/>
</svg>
