<svg xmlns="http://www.w3.org/2000/svg" width="56.826" height="55.512" viewBox="0 0 56.826 55.512"><g transform="translate(-1639.964 -3247.159)"><ellipse cx="28.413" cy="27.756" rx="28.413" ry="27.756" transform="translate(1639.964 3247.159)" fill="#fff"/><g transform="translate(1652.042 3253.232)"><path d="M14.4,32.66a19.477,19.477,0,0,1,1.908,2.84c.444.689.2.483.828.961a27.6,27.6,0,0,1,2.372-3.733c2.061-.15,10.75,1.45,8.044,3.7-3.144,2.622-17.116,2.833-21.049.1-3.328-2.311,5.905-3.794,7.894-3.872Zm.756-30.532c-14.688,3.45-8.6,23.46,4.5,20.122a10.5,10.5,0,0,0,7.455-12.5C25.963,5.017,21.185.711,15.158,2.128Zm5.378,29.144c.878-2.867,8.589-11.5,9.1-17.538a12.675,12.675,0,1,0-25.249.094c.528,6.039,8.472,14.822,9.078,17.444C10.1,31.377-2.6,33.466,1.364,37.56c2.478,2.555,11.083,3.483,15.716,3.472,4.5-.011,13.405-.989,15.583-3.6,3.478-4.161-8.772-6.039-12.139-6.161Z" transform="translate(-0.606 0.017)" fill="#001877" fill-rule="evenodd"/></g></g></svg>