<svg xmlns="http://www.w3.org/2000/svg" xmlns:xlink="http://www.w3.org/1999/xlink" width="440.001" height="115.999" viewBox="0 0 440.001 115.999"><defs><filter id="a" x="0" y="0" width="440.001" height="115.999" filterUnits="userSpaceOnUse"><feOffset dy="-6" input="SourceAlpha"/><feGaussianBlur stdDeviation="6" result="b"/><feFlood flood-opacity="0.231"/><feComposite operator="in" in2="b"/><feComposite in="SourceGraphic"/></filter></defs><g transform="matrix(1, 0, 0, 1, 0, 0)" filter="url(#a)"><path d="M-273-8297H-667a5.006,5.006,0,0,1-5-5v-70a5.007,5.007,0,0,1,5-5h137.107c10.1,3.688,14.763,14.193,19.7,25.315,7,15.76,14.938,33.622,40.688,33.853.169,0,.33,0,.5,0,25.233,0,32.63-17.034,39.783-33.5,4.9-11.285,9.53-21.943,19.755-25.667H-273a5.006,5.006,0,0,1,5,5v70A5,5,0,0,1-273-8297Z" transform="translate(690 8401)" fill="#fff"/></g></svg>