<svg xmlns="http://www.w3.org/2000/svg" width="61.043" height="60.834" viewBox="0 0 61.043 60.834"><g transform="translate(0 -0.014)"><path d="M43.983,21.981l2.362-.562c-.45,2.249-2.7,2.7-3.036,4.273-.787,3.711,0,10.571-6.86,15.744-8.884,6.635-21.142,3.6-22.941.675,3.261.225,7.31-.562,9.334-2.362-1.349-1.125-4.386-.9-5.735-4.836a.393.393,0,0,0,.225-.112l1.687-.45a6.484,6.484,0,0,1-4.386-6.523l2.249.45c-.225-.337-4.5-5.848-1.237-8.772a10.449,10.449,0,0,1,2.7,2.362,21.351,21.351,0,0,0,11.021,4.5c.112-7.647,6.185-10.234,11.246-6.86,1.237.787,1.012.675,2.587.112a13.354,13.354,0,0,1,2.474-.9C45.445,20.407,44.545,20.744,43.983,21.981Zm-44.871,9.9a30.436,30.436,0,0,0,9,21.479c8.659,8.659,23.054,11.583,33.85,6.3,6.519-3.267,12.255-7.99,15.179-14.96,3.6-8.659,4.048-16.419.225-25.19a27.98,27.98,0,0,0-6.185-8.884,30.252,30.252,0,0,0-34.524-6.3A32.185,32.185,0,0,0,4.4,14.671,29.788,29.788,0,0,0-1,31.877Z" transform="translate(1 -1.452)" fill="#fff" fill-rule="evenodd"/><path d="M158.476,153c.562-1.237,1.574-1.574,1.687-3.261a13.351,13.351,0,0,0-2.474.9c-1.574.562-1.462.675-2.587-.112-4.948-3.374-11.133-.787-11.246,6.86a21.351,21.351,0,0,1-11.021-4.5c-.9-.675-1.912-1.912-2.7-2.362-3.261,2.924,1.012,8.434,1.237,8.772l-2.249-.45a6.621,6.621,0,0,0,4.386,6.523l-1.687.45c0-.112-.225,0-.225.112,1.349,3.936,4.386,3.711,5.735,4.836-2.024,1.8-6.073,2.587-9.334,2.362,1.687,2.924,14.057,5.96,22.941-.675,6.86-5.173,6.073-12.033,6.86-15.744.337-1.462,2.7-1.912,3.036-4.273Z" transform="translate(-113.493 -132.475)" fill="#3991d0" fill-rule="evenodd"/></g></svg>