<svg xmlns="http://www.w3.org/2000/svg" width="53.675" height="53.854" viewBox="0 0 53.675 53.854"><g transform="translate(-1639.965 -3394.004)"><ellipse cx="19.205" cy="21.921" rx="19.205" ry="21.921" transform="translate(1647.596 3399.013)" fill="#25d366"/><g transform="translate(1639.965 3394.01)"><path d="M11.46,42.164a58.436,58.436,0,0,1,1.622-6.414c.516-1.991.59-1.548-.221-3.318a15.441,15.441,0,0,1,2.212-15.7C20.087,10.092,31.22,8.764,38,15.621c10.322,10.4,1.327,28.9-13.787,26.027-3.1-.59-3.318-1.917-6.341-1.032a43.053,43.053,0,0,1-6.414,1.622ZM-.926,26.017c0,6.636,1.18,11.576,4.94,16.663a11.392,11.392,0,0,0,1.4,1.77c2.064,2.138,2.359,2.8,5.161,4.645,7.52,5.014,17.7,6.709,26.174,2.581a28.628,28.628,0,0,0,5.972-3.613c.737-.59,1.253-.958,1.917-1.548,3.76-3.76,8.037-10.4,8.037-17.843V25.5c0-7.3-4.2-13.935-7.963-17.7a26.913,26.913,0,0,0-36.57-.958,24.814,24.814,0,0,0-3.981,4.276A26.631,26.631,0,0,0-1,26.017Z" transform="translate(1 -0.149)" fill="#fff" fill-rule="evenodd"/><path d="M226.73,213.165c.885-2.064,1.843-2.359,4.055-1.032,2.064,1.253,1.475,3.023-.295,3.981-4.866,2.8-15.557-6.562-13.05-11.723.811-1.622,2.728-2.359,3.76-.59,1.622,2.8.811,2.728-.147,4.719.664,1.77,3.318,4.424,5.677,4.571Zm-13.566,8.11c1.622-.295,3.834-1.327,5.235-.737,1.7.737,2.507,1.4,4.792,1.622A12.351,12.351,0,0,0,233.144,201c-9.216-9.437-26.322,1.253-19.391,14.893.885,1.7-.295,3.465-.59,5.456Z" transform="translate(-196.427 -182.873)" fill="#fff" fill-rule="evenodd"/></g></g></svg>