<svg xmlns="http://www.w3.org/2000/svg" width="25.816" height="30.759" viewBox="0 0 25.816 30.759"><g transform="translate(-1722 242.847)"><path d="M5732,7117.6a16.138,16.138,0,0,0,10.493-4c.129-.116.17-.177.306-.286s.211-.157.327-.266l1.776-1.878a14.411,14.411,0,0,0-2.252-6.179,11.6,11.6,0,0,0-1.953-2.252,13.239,13.239,0,0,0-1.144-.933,5.9,5.9,0,0,0-1.381-.8,5.526,5.526,0,0,1-1.137,1.109,7.527,7.527,0,0,1-1.388.857,8.348,8.348,0,0,1-8.7-.857,5.747,5.747,0,0,1-1.143-1.109,6.485,6.485,0,0,0-1.45.851,13.307,13.307,0,0,0-5.137,8.35c-.163.864-.252.789.17,1.293.109.129.184.177.286.3a2.818,2.818,0,0,0,.544.579,4.48,4.48,0,0,1,.544.579l1.211,1.034a15.97,15.97,0,0,0,10,3.6Z" transform="translate(-3997.09 -7329.685)" fill="#131112" fill-rule="evenodd"/><path d="M6489.325,5019.737a8.19,8.19,0,0,0-4.661,2.041l-.5.5a8.03,8.03,0,0,0-1.932,5.771,7.724,7.724,0,1,0,13.779-5.376l-.939-1.014a8.061,8.061,0,0,0-5.756-1.933Z" transform="translate(-4755.017 -5262.562)" fill="#131112" fill-rule="evenodd"/></g></svg>