<svg xmlns="http://www.w3.org/2000/svg" width="26.83" height="31.773" viewBox="0 0 26.83 31.773"><g transform="translate(-1721.491 243.352)"><path d="M5732,7117.6a16.139,16.139,0,0,0,10.493-4c.129-.116.17-.176.307-.286s.211-.157.327-.266l1.776-1.878a14.414,14.414,0,0,0-2.252-6.179,11.613,11.613,0,0,0-1.953-2.252,13.347,13.347,0,0,0-1.144-.933,5.912,5.912,0,0,0-1.38-.8,5.539,5.539,0,0,1-1.137,1.109,7.535,7.535,0,0,1-1.389.856,8.348,8.348,0,0,1-8.7-.857,5.735,5.735,0,0,1-1.144-1.108,6.479,6.479,0,0,0-1.45.851,13.312,13.312,0,0,0-5.138,8.351c-.163.864-.252.789.17,1.293.109.129.184.177.286.3a2.834,2.834,0,0,0,.544.579,4.46,4.46,0,0,1,.544.579l1.21,1.034a15.972,15.972,0,0,0,10,3.6Z" transform="translate(-3997.09 -7329.685)" fill="#36436e" fill-rule="evenodd"/><path d="M5731.85,7118.1l-.021-.015a16.545,16.545,0,0,1-10.161-3.707l-.015-.012-1.238-1.057-.023-.026c-.059-.067-.11-.127-.158-.183a2.386,2.386,0,0,0-.332-.342,2.752,2.752,0,0,1-.5-.511c-.03-.039-.064-.082-.107-.134a1.291,1.291,0,0,0-.1-.1,2.4,2.4,0,0,1-.183-.191,1.207,1.207,0,0,1-.35-1.361c.021-.1.045-.21.071-.347a13.719,13.719,0,0,1,5.344-8.667l.131-.091a5.245,5.245,0,0,1,1.5-.837l.343-.074.186.3a5.8,5.8,0,0,0,1.032.984,7.528,7.528,0,0,0,4.73,1.585,7.668,7.668,0,0,0,3.428-.786h0a7.007,7.007,0,0,0,1.3-.8,5.383,5.383,0,0,0,1.023-.981l.188-.3.347.078a4.651,4.651,0,0,1,1.37.752l.179.123h0a7.606,7.606,0,0,1,.831.659c.105.094.215.192.347.3a12.25,12.25,0,0,1,2.05,2.359,14.8,14.8,0,0,1,2.338,6.458v.2l-1.933,2.044a2.976,2.976,0,0,1-.264.221l-.1.074a1.42,1.42,0,0,0-.133.122c-.038.04-.085.086-.15.145h0a16.691,16.691,0,0,1-4.927,2.992,16.175,16.175,0,0,1-5.9,1.133Zm.281-1.015.02.013a15.711,15.711,0,0,0,10.012-3.875l.106-.1a2.351,2.351,0,0,1,.218-.2l.11-.084c.067-.052.117-.09.177-.145l1.623-1.716a14.478,14.478,0,0,0-2.16-5.706,11.143,11.143,0,0,0-1.855-2.146c-.146-.12-.264-.224-.378-.325a6.6,6.6,0,0,0-.73-.582c-.054-.036-.118-.081-.19-.131-.179-.124-.493-.342-.745-.479a8.509,8.509,0,0,1-.987.892,8.012,8.012,0,0,1-1.48.917,8.667,8.667,0,0,1-3.874.89,8.531,8.531,0,0,1-5.358-1.807,8.845,8.845,0,0,1-.99-.893c-.2.111-.493.3-.87.563l-.137.1a12.7,12.7,0,0,0-4.928,8.029c-.028.149-.054.272-.075.371s-.046.219-.051.271c.032.052.128.167.188.239a1.405,1.405,0,0,0,.109.113,2.239,2.239,0,0,1,.175.185v0l.12.15a1.737,1.737,0,0,0,.354.358,3.392,3.392,0,0,1,.458.467c.037.043.076.09.121.14l1.177,1a15.535,15.535,0,0,0,9.658,3.486Z" transform="translate(-3997.09 -7329.685)" fill="#36436e"/><path d="M6489.33,5019.74a8.189,8.189,0,0,0-4.661,2.042l-.5.5a8.029,8.029,0,0,0-1.932,5.771,7.724,7.724,0,1,0,13.779-5.376l-.939-1.014a8.059,8.059,0,0,0-5.756-1.934Z" transform="translate(-4755.017 -5262.562)" fill="#36436e" fill-rule="evenodd"/><path d="M6489.82,5019.21a8.5,8.5,0,0,1,5.587,2.074l.036.034.957,1.034a8.163,8.163,0,0,1,1.733,4.406,8.035,8.035,0,0,1-1.864,5.919,8.354,8.354,0,0,1-5.642,2.953c-.241.02-.48.03-.717.03a8.1,8.1,0,0,1-5.62-2.249,8.337,8.337,0,0,1-2.552-5.321,8.554,8.554,0,0,1,2.049-6.137l.025-.027.489-.5a8.4,8.4,0,0,1,4.013-2.052l-.079-.085,1.053-.066C6489.46,5019.22,6489.64,5019.21,6489.82,5019.21Zm4.907,2.806a7.6,7.6,0,0,0-4.907-1.806h-.164l-.3.02a7.667,7.667,0,0,0-4.323,1.877l-.015.016-.483.491a7.54,7.54,0,0,0-1.8,5.39,7.192,7.192,0,0,0,7.175,6.654c.209,0,.422-.008.633-.025a7.352,7.352,0,0,0,4.959-2.6,7.039,7.039,0,0,0,1.634-5.187,7.147,7.147,0,0,0-1.5-3.846Z" transform="translate(-4755.017 -5262.562)" fill="#36436e"/></g></svg>