<svg xmlns="http://www.w3.org/2000/svg" width="56" height="56" viewBox="0 0 56 56"><g transform="translate(-174)"><circle cx="28" cy="28" r="28" transform="translate(174)" fill="#36436e"/><path d="M28,2A26.007,26.007,0,0,0,17.88,51.958,26.007,26.007,0,0,0,38.12,4.042,25.835,25.835,0,0,0,28,2m0-2A28,28,0,1,1,0,28,28,28,0,0,1,28,0Z" transform="translate(174)" fill="#fff"/><path d="M9.343,24.247a2.781,2.781,0,1,0,2.781,2.781A2.777,2.777,0,0,0,9.343,24.247ZM1,2V4.781H3.781L8.787,15.335,6.909,18.741a2.688,2.688,0,0,0-.348,1.335,2.789,2.789,0,0,0,2.781,2.781H26.028V20.076H9.927a.344.344,0,0,1-.348-.348l.042-.167L10.872,17.3H21.231a2.768,2.768,0,0,0,2.433-1.432l4.978-9.024a1.358,1.358,0,0,0,.167-.667,1.4,1.4,0,0,0-1.39-1.39H6.854L5.547,2H1ZM23.247,24.247a2.781,2.781,0,1,0,2.781,2.781A2.777,2.777,0,0,0,23.247,24.247Z" transform="translate(187.096 14.814)" fill="#fff"/></g></svg>