<?xml version="1.0" encoding="UTF-8"?>
<!DOCTYPE svg PUBLIC "-//W3C//DTD SVG 1.1//EN" "http://www.w3.org/Graphics/SVG/1.1/DTD/svg11.dtd">
<!-- Creator: CorelDRAW X6 -->
<svg xmlns="http://www.w3.org/2000/svg" xml:space="preserve" width="42.6132mm" height="42.9588mm" version="1.1" style="shape-rendering:geometricPrecision; text-rendering:geometricPrecision; image-rendering:optimizeQuality; fill-rule:evenodd; clip-rule:evenodd"
viewBox="0 0 3256 3282"
 xmlns:xlink="http://www.w3.org/1999/xlink">
 <defs>
  <style type="text/css">
   <![CDATA[
    .fil7 {fill:#FEFEFE}
    .fil8 {fill:blue}
    .fil6 {fill:#FEFEFE;fill-rule:nonzero}
    .fil1 {fill:url(#id0)}
    .fil2 {fill:url(#id1)}
    .fil3 {fill:url(#id2)}
    .fil5 {fill:url(#id3)}
    .fil4 {fill:url(#id4)}
    .fil0 {fill:url(#id5)}
   ]]>
  </style>
  <linearGradient id="id0" gradientUnits="userSpaceOnUse" x1="1513.66" y1="382.754" x2="1318.55" y2="919.797">
   <stop offset="0" style="stop-color:blue"/>
   <stop offset="0.619608" style="stop-color:#007FFF"/>
   <stop offset="1" style="stop-color:aqua"/>
  </linearGradient>
  <linearGradient id="id1" gradientUnits="userSpaceOnUse" xlink:href="#id0" x1="636.912" y1="1172.2" x2="472.997" y2="1623.38">
  </linearGradient>
  <linearGradient id="id2" gradientUnits="userSpaceOnUse" xlink:href="#id0" x1="681.529" y1="406.835" x2="557.457" y2="748.364">
  </linearGradient>
  <linearGradient id="id3" gradientUnits="userSpaceOnUse" xlink:href="#id0" x1="1829.88" y1="-37.6726" x2="1710.16" y2="291.892">
  </linearGradient>
  <linearGradient id="id4" gradientUnits="userSpaceOnUse" xlink:href="#id0" x1="176.796" y1="1028.96" x2="63.1213" y2="1341.85">
  </linearGradient>
  <linearGradient id="id5" gradientUnits="userSpaceOnUse" xlink:href="#id0" x1="2325.56" y1="594.411" x2="1272.3" y2="3493.6">
  </linearGradient>
 </defs>
 <g id="Layer_x0020_1">
  <metadata id="CorelCorpID_0Corel-Layer"/>
  <g id="_630810040">
   <g>
    <path class="fil0" d="M1424 2634c-80,-59 -149,-133 -202,-217 54,84 123,157 202,217zm-335 -651c-1,-33 0,-67 4,-101 -3,27 -4,54 -4,81l0 20zm992 -1384c-21,-22 -4,-117 -111,-183 -67,-41 -165,-39 -231,5 -171,113 -17,304 -156,441 -45,44 -123,84 -213,71 -100,-15 -136,-66 -179,-125 -79,-109 -297,-141 -431,-45 -108,77 -175,261 -82,421 23,39 237,207 83,418 -134,185 -275,45 -390,208 -59,83 -78,306 206,333 116,1124 1652,1572 2398,625 192,-243 332,-632 265,-1042 -32,-198 -95,-340 -182,-488 -329,-560 -908,-567 -976,-639z"/>
    <path class="fil1" d="M1387 488c-226,55 -135,381 80,328 204,-51 142,-382 -80,-328z"/>
    <path class="fil2" d="M526 1231c-221,54 -138,387 88,326 190,-51 134,-380 -88,-326z"/>
    <path class="fil3" d="M602 457c-174,54 -82,287 74,229 136,-50 74,-274 -74,-229z"/>
    <path class="fil4" d="M84 1073c-152,51 -81,277 77,229 147,-44 80,-282 -77,-229z"/>
    <path class="fil5" d="M1753 6c-169,49 -81,287 75,228 128,-48 79,-273 -75,-228z"/>
   </g>
   <path class="fil6" d="M2118 931c304,48 560,215 728,445 168,231 248,525 200,830 -48,304 -215,560 -445,728 -230,168 -525,248 -829,200l0 0 -1 0c-304,-48 -560,-215 -728,-445 -168,-231 -248,-525 -200,-830l10 2 10 0 0 0 0 1 0 1c-47,299 31,588 196,815 165,227 416,390 715,437l0 0c299,47 588,-31 815,-196 227,-165 390,-416 437,-715 47,-299 -31,-588 -196,-815 -165,-227 -416,-390 -715,-437l3 -20z"/>
   <polygon class="fil6" points="948,1801 827,1774 843,1707 859,1710 848,1758 879,1765 889,1717 907,1721 896,1769 935,1778 946,1730 963,1734 "/>
   <path id="1" class="fil6" d="M975 1696l-7 17 -74 -29 6 -16 12 5c-4,-5 -6,-11 -7,-16 -1,-5 0,-11 2,-17 2,-6 5,-10 9,-13 4,-3 9,-4 15,-4 -4,-6 -6,-12 -6,-17 -1,-5 0,-11 2,-16 2,-5 5,-9 8,-12 3,-3 7,-5 11,-5 2,0 4,0 7,0 2,0 6,1 10,3l6 2 45 18 -7 17 -38 -15c-10,-4 -17,-5 -21,-5 -4,1 -7,4 -9,9 -3,7 -2,12 1,17 3,5 10,9 21,13l34 13 -7 17 -38 -15c-9,-4 -16,-5 -20,-4 -4,1 -8,4 -10,9 -1,3 -2,7 -1,10 0,3 2,6 4,9 1,2 3,3 5,5 2,1 7,3 14,6l34 13z"/>
   <path id="2" class="fil6" d="M1029 1488l-30 57c7,3 13,4 19,2 6,-2 10,-5 13,-11 3,-5 4,-10 4,-15 0,-5 -2,-10 -6,-15l15 -10c5,8 8,16 8,23 0,8 -2,16 -6,23 -6,11 -14,19 -25,22 -10,3 -22,2 -33,-5 -11,-6 -18,-14 -22,-25 -3,-11 -2,-22 3,-32 6,-11 14,-19 24,-22 10,-3 21,-1 32,5l3 2zm-20 11c-5,-2 -10,-2 -15,0 -4,2 -8,6 -11,11 -3,5 -4,10 -3,15 1,5 4,9 8,13l21 -39z"/>
   <path id="3" class="fil6" d="M1026 1438c-3,-4 -5,-9 -6,-13 0,-4 1,-8 3,-12 1,-2 3,-4 5,-6 2,-2 4,-3 6,-5l9 14c-2,1 -3,2 -5,3 -1,1 -3,3 -4,5 -3,5 -4,10 -1,15 3,5 9,10 19,17l30 19 -10 15 -68 -43 10 -15 11 7z"/>
   <path id="4" class="fil6" d="M1109 1365c-7,-5 -13,-8 -19,-7 -6,0 -11,3 -15,8 -4,5 -6,11 -4,17 1,6 5,12 12,17 7,5 13,8 19,8 6,0 11,-3 15,-8 4,-5 5,-11 4,-17 -1,-6 -5,-12 -12,-17zm39 8c12,10 19,19 20,28 1,9 -3,19 -12,31 -7,9 -14,14 -22,16 -8,2 -15,1 -21,-4l12 -15c3,2 6,2 9,1 3,-1 6,-4 10,-8 5,-6 7,-12 6,-16 -1,-5 -4,-10 -10,-15l-8 -7c2,5 2,11 1,15 -1,5 -3,9 -7,14 -7,9 -16,13 -26,14 -10,0 -20,-4 -31,-12 -10,-8 -16,-17 -18,-27 -2,-10 0,-19 7,-28 4,-5 9,-9 14,-11 5,-2 10,-2 16,-1l-10 -8 11 -14 59 46z"/>
   <path id="5" class="fil6" d="M1191 1273l-42 48c6,5 12,7 18,7 6,0 11,-3 15,-8 4,-4 6,-9 7,-14 1,-5 0,-10 -2,-16l17 -6c3,9 4,17 2,24 -1,8 -5,15 -11,21 -9,10 -18,15 -29,15 -11,0 -21,-4 -31,-12 -9,-8 -15,-18 -15,-29 -1,-11 3,-21 11,-31 9,-10 18,-15 28,-15 10,0 20,4 30,12l3 2zm-22 6c-5,-3 -10,-5 -14,-4 -5,1 -9,3 -13,8 -4,5 -6,9 -6,14 0,5 1,10 5,15l29 -33z"/>
   <path id="6" class="fil6" d="M1293 1113c-7,0 -14,1 -21,3 -6,2 -12,5 -18,9 -11,8 -17,19 -18,31 -1,12 2,24 11,34 8,11 18,17 30,18 12,2 23,-1 33,-9 6,-5 10,-10 14,-16 4,-6 6,-13 8,-21l14 18c-2,6 -5,12 -8,18 -4,5 -9,10 -14,15 -7,6 -15,10 -23,13 -8,2 -17,3 -25,2 -8,-1 -16,-4 -24,-8 -7,-4 -14,-10 -20,-17 -6,-7 -10,-15 -12,-23 -2,-8 -3,-17 -2,-25 1,-9 4,-17 8,-24 4,-7 10,-14 17,-20 6,-4 12,-8 18,-10 6,-2 13,-4 21,-4l12 17z"/>
   <path id="7" class="fil6" d="M1400 1104c-4,-6 -9,-10 -16,-12 -7,-2 -13,-1 -19,3 -6,4 -9,9 -11,16 -1,7 0,14 4,20 4,6 9,10 16,12 7,2 13,1 19,-3 6,-4 9,-9 11,-16 1,-7 0,-13 -4,-20zm-58 37c-3,-5 -5,-10 -6,-16 -1,-6 -1,-11 1,-17 1,-6 4,-11 7,-15 3,-5 7,-9 12,-12 5,-3 10,-5 16,-6 6,-1 11,-1 17,0 6,1 11,3 16,7 5,3 8,7 12,12 3,5 5,10 6,16 1,6 1,11 -1,17 -1,6 -4,11 -7,16 -3,5 -7,9 -12,12 -5,3 -10,5 -16,6 -6,1 -11,1 -17,0 -6,-1 -11,-3 -16,-7 -5,-3 -9,-7 -12,-12z"/>
   <path id="8" class="fil6" d="M1472 1110l-16 8 -37 -71 15 -8 6 12c1,-7 3,-12 5,-17 3,-4 7,-8 13,-11 6,-3 11,-4 16,-4 5,0 9,3 14,6 1,-7 3,-13 6,-17 3,-4 7,-8 13,-11 5,-2 9,-4 14,-4 4,0 8,1 12,3 2,1 3,3 5,5 2,2 3,5 5,9l3 6 22 43 -16 8 -19 -36c-5,-10 -9,-15 -13,-17 -4,-2 -8,-2 -13,1 -6,3 -10,8 -11,13 -1,5 2,13 7,24l17 32 -16 9 -19 -36c-5,-9 -9,-14 -13,-17 -4,-2 -8,-2 -14,1 -3,2 -6,4 -8,7 -2,3 -3,6 -3,9 0,2 0,5 1,7 1,3 3,7 6,14l17 32z"/>
   <path id="9" class="fil6" d="M1596 1009c3,8 7,13 12,17 5,3 11,4 18,2 7,-2 11,-6 13,-12 2,-6 2,-12 -1,-20 -3,-8 -7,-14 -12,-17 -5,-3 -11,-4 -18,-2 -7,2 -11,6 -13,12 -2,6 -2,12 0,20zm7 80l-36 -112 17 -6 4 13c0,-6 2,-10 6,-14 4,-4 9,-7 15,-9 10,-3 19,-2 28,3 9,5 15,14 19,26 4,13 4,24 1,33 -4,9 -11,16 -22,19 -5,2 -10,2 -15,1 -5,-1 -10,-3 -14,-6l15 46 -17 6z"/>
   <path id="10" class="fil6" d="M1687 941l10 44c2,8 5,13 8,15 4,3 9,3 16,1 7,-2 12,-4 14,-8 2,-4 3,-10 1,-17l-10 -44 18 -4 9 39c3,15 3,26 -2,35 -4,8 -13,14 -26,17 -13,3 -24,2 -31,-3 -8,-5 -13,-16 -16,-31l-9 -39 18 -4z"/>
   <polygon id="11" class="fil6" points="1792,1001 1782,938 1768,940 1765,924 1779,922 1774,892 1792,889 1797,919 1811,917 1813,932 1800,935 1810,998 "/>
   <path id="12" class="fil6" d="M1912 949l-64 5c1,7 4,13 8,17 4,4 10,6 16,5 6,0 11,-2 14,-5 4,-3 7,-7 9,-13l16 7c-4,8 -9,15 -15,19 -6,4 -14,7 -23,8 -13,1 -23,-2 -32,-9 -8,-7 -13,-17 -14,-30 -1,-12 2,-23 9,-32 7,-9 17,-14 29,-15 13,-1 23,2 31,9 8,7 12,17 13,30l0 3zm-20 -11c-1,-6 -4,-10 -8,-12 -4,-3 -9,-4 -15,-3 -6,0 -11,2 -14,6 -3,3 -6,8 -7,14l44 -4z"/>
   <path id="13" class="fil6" d="M1952 920c2,-5 4,-9 8,-12 3,-3 7,-4 12,-4 3,0 5,0 8,1 3,1 5,1 7,3l-6 16c-2,-1 -3,-2 -5,-2 -2,0 -4,-1 -6,-1 -6,0 -10,3 -13,8 -3,5 -4,13 -3,25l1 35 -18 0 -2 -80 18 0 0 13z"/>
   <path id="14" class="fil6" d="M1991 970l16 -7c1,4 3,7 6,10 3,2 7,4 11,4 4,0 7,0 10,-2 2,-2 4,-4 4,-7 0,-4 -4,-8 -12,-12 -3,-1 -5,-2 -6,-3 -8,-4 -14,-8 -17,-12 -3,-4 -4,-9 -4,-14 1,-7 4,-13 10,-17 6,-4 14,-6 23,-5 6,0 11,2 16,5 4,3 7,6 9,11l-14 8c-1,-3 -2,-5 -5,-6 -2,-2 -5,-3 -8,-3 -3,0 -6,0 -9,2 -2,1 -3,4 -4,6 0,4 4,8 13,12 3,1 5,2 7,3 7,4 12,7 15,11 3,4 4,9 4,14 -1,8 -4,14 -10,18 -6,4 -14,6 -25,5 -8,-1 -14,-3 -19,-6 -5,-3 -9,-8 -11,-14z"/>
   <path class="fil7" d="M1752 1265c-59,-1 -220,91 -278,134 -48,36 -103,88 -141,135 -216,266 -253,634 -81,937 20,35 72,110 100,140 6,6 11,10 16,16 80,90 210,175 332,216 145,49 326,62 480,18 112,-32 232,-88 318,-163 54,-47 90,-83 134,-141 10,-14 18,-25 28,-40 19,-28 86,-143 89,-181l-197 0c-43,81 -56,98 -113,165 -35,41 -109,95 -156,122 -58,33 -130,59 -206,72 -47,8 -87,9 -135,8 -56,-1 -98,-15 -122,-16l-38 -12c-48,-11 -115,-46 -151,-69 -23,-15 -45,-30 -64,-47 -94,-80 -182,-189 -216,-332 -32,-136 -30,-254 16,-383 50,-144 168,-283 304,-352 171,-86 363,-101 540,-29 182,75 311,216 371,396 12,35 17,66 22,84l2 25 -99 1c-144,0 -289,0 -433,0 -76,0 -140,-13 -178,40 -40,56 -4,121 44,139 30,11 362,5 424,5 32,0 407,2 429,-1 12,-50 4,-164 -3,-215 -9,-61 -27,-130 -48,-181 -51,-122 -96,-186 -180,-275 -70,-74 -154,-132 -270,-184 -97,-43 -266,-77 -387,-61 -16,1 -136,14 -152,28z"/>
   <path class="fil8" d="M2338 2336c-76,2 -155,0 -231,0 -117,0 -196,14 -293,-51 -15,-10 -20,-15 -32,-27 -162,-161 -77,-407 111,-462 60,-18 150,-11 217,-11 76,0 152,0 229,0 -12,-26 -67,-75 -91,-94 -121,-92 -292,-115 -436,-62 -157,59 -300,215 -299,433 2,331 331,534 617,430 47,-17 84,-39 119,-65 33,-25 24,-20 49,-42 14,-13 35,-35 41,-49z"/>
  </g>
 </g>
</svg>
