<svg xmlns="http://www.w3.org/2000/svg" xmlns:xlink="http://www.w3.org/1999/xlink" width="440.001" height="115.999" viewBox="0 0 440.001 115.999"><defs><filter id="a" x="0" y="0" width="440.001" height="115.999" filterUnits="userSpaceOnUse"><feOffset dy="-6" input="SourceAlpha"/><feGaussianBlur stdDeviation="6" result="b"/><feFlood flood-opacity="0.231"/><feComposite operator="in" in2="b"/><feComposite in="SourceGraphic"/></filter></defs><g transform="matrix(1, 0, 0, 1, 0, 0)" filter="url(#a)"><path d="M-273-8297H-667a5.006,5.006,0,0,1-5-5v-70a5,5,0,0,1,5-5h123.974a23.743,23.743,0,0,0,5.027.5,23.658,23.658,0,0,1,10.248,2.24,23.069,23.069,0,0,1,7.377,5.761c4.185,4.779,7.1,11.138,10.188,17.87,7,15.269,14.936,32.572,40.686,32.8.169,0,.33,0,.5,0,25.233,0,32.629-16.5,39.781-32.454,3.074-6.857,5.977-13.333,10.214-18.192a22.97,22.97,0,0,1,7.5-5.833A23.954,23.954,0,0,1-401-8376.5a24.164,24.164,0,0,0,5.41-.5H-273a5.006,5.006,0,0,1,5,5v70A5.007,5.007,0,0,1-273-8297Z" transform="translate(690 8401)" fill="#fff"/></g></svg>