<svg xmlns="http://www.w3.org/2000/svg" xmlns:xlink="http://www.w3.org/1999/xlink" width="172.182" height="84.274" viewBox="0 0 172.182 84.274"><defs><linearGradient id="a" x1="-0.002" y1="0.503" x2="1.006" y2="0.503" gradientUnits="objectBoundingBox"><stop offset="0" stop-color="#0044b3"/><stop offset="1" stop-color="#4879ff"/></linearGradient><linearGradient id="b" x1="0.007" y1="0.499" x2="0.998" y2="0.499" xlink:href="#a"/><linearGradient id="c" x1="0.003" y1="0.499" x2="1.016" y2="0.499" xlink:href="#a"/><linearGradient id="d" x1="-0.012" y1="0.508" x2="1" y2="0.508" xlink:href="#a"/><linearGradient id="e" x1="-0.03" y1="0.502" x2="1.077" y2="0.502" xlink:href="#a"/><linearGradient id="f" x1="0" y1="0.504" x2="0.995" y2="0.504" xlink:href="#a"/><linearGradient id="g" x1="-0.001" y1="0.499" x2="1.004" y2="0.499" xlink:href="#a"/><linearGradient id="h" x1="-0.003" y1="0.501" x2="0.998" y2="0.501" xlink:href="#a"/><linearGradient id="i" x1="0" y1="0.503" x2="0.998" y2="0.503" xlink:href="#a"/><linearGradient id="j" x1="0.001" y1="0.498" x2="0.998" y2="0.498" xlink:href="#a"/><linearGradient id="k" x1="0" y1="0.499" x2="0.999" y2="0.499" xlink:href="#a"/><linearGradient id="l" x1="0.001" y1="0.5" x2="1.001" y2="0.5" xlink:href="#a"/><linearGradient id="m" x1="0.001" y1="0.5" x2="0.999" y2="0.5" xlink:href="#a"/><linearGradient id="n" x1="0.001" y1="0.497" x2="1.001" y2="0.497" xlink:href="#a"/><linearGradient id="o" x1="0" y1="0.5" x2="0.999" y2="0.5" xlink:href="#a"/><linearGradient id="p" x1="0.001" y1="0.5" x2="1.001" y2="0.5" xlink:href="#a"/><linearGradient id="q" x1="0" y1="0.5" x2="0.999" y2="0.5" xlink:href="#a"/><linearGradient id="r" x1="-0.001" y1="0.499" x2="0.999" y2="0.499" xlink:href="#a"/><linearGradient id="s" x1="-0.001" y1="0.501" x2="0.999" y2="0.501" xlink:href="#a"/><linearGradient id="t" x1="0" y1="0.501" x2="1" y2="0.501" xlink:href="#a"/></defs><path d="M1062.131,2206a2.11,2.11,0,0,1,2.131,2.1,2.133,2.133,0,0,1-2.131,2.1,2.11,2.11,0,0,1-2.131-2.1A2.133,2.133,0,0,1,1062.131,2206Z" transform="translate(-1022.964 -2128.923)" fill="url(#a)"/><path d="M1253.572,2239a1.538,1.538,0,1,1-1.572,1.537A1.559,1.559,0,0,1,1253.572,2239Z" transform="translate(-1208.256 -2160.77)" fill="url(#b)"/><path d="M1400.769,2261a.769.769,0,1,1-.769.769A.776.776,0,0,1,1400.769,2261Z" transform="translate(-1351.085 -2182.001)" fill="url(#c)"/><path d="M1489.384,2239a.384.384,0,1,1-.384.384A.388.388,0,0,1,1489.384,2239Z" transform="translate(-1436.975 -2160.77)" fill="url(#d)"/><path d="M1543.1,2216a.1.1,0,1,1-.1.1A.093.093,0,0,1,1543.1,2216Z" transform="translate(-1489.088 -2138.574)" fill="url(#e)"/><path d="M831.586,2165a2.517,2.517,0,1,1-2.586,2.516A2.543,2.543,0,0,1,831.586,2165Z" transform="translate(-800.035 -2089.356)" fill="url(#f)"/><path d="M598,2045a2.97,2.97,0,1,1-3,2.97A2.975,2.975,0,0,1,598,2045Z" transform="translate(-574.211 -1973.548)" fill="url(#g)"/><path d="M398.494,1865a3.425,3.425,0,1,1-3.494,3.424A3.467,3.467,0,0,1,398.494,1865Z" transform="translate(-381.199 -1799.838)" fill="url(#h)"/><path d="M197.228,1610a4.124,4.124,0,1,1-4.228,4.123A4.176,4.176,0,0,1,197.228,1610Z" transform="translate(-186.257 -1553.747)" fill="url(#i)"/><path d="M51.136,1290A5.032,5.032,0,1,1,46,1295.031,5.078,5.078,0,0,1,51.136,1290Z" transform="translate(-44.393 -1244.928)" fill="url(#j)"/><path d="M5.94,888a5.836,5.836,0,1,1,0,11.67,5.836,5.836,0,1,1,0-11.67Z" transform="translate(0 -856.974)" fill="url(#k)"/><path d="M143.093,412A6.954,6.954,0,1,1,136,418.953,7.024,7.024,0,0,1,143.093,412Z" transform="translate(-131.248 -397.605)" fill="url(#l)"/><path d="M550.246,0a8.158,8.158,0,0,1,8.246,8.071,8.248,8.248,0,0,1-16.491,0A8.158,8.158,0,0,1,550.246,0Z" transform="translate(-523.063)" fill="url(#m)"/><path d="M2912.768,1096.122H2905.4l-5.416-8.281h-2.69v8.281H2891v-14.185h13.032a1.875,1.875,0,0,0,1.328-.524,1.677,1.677,0,0,0,.594-1.293v-1.293a1.678,1.678,0,0,0-.594-1.293,2.04,2.04,0,0,0-1.328-.524H2891V1071h13.032a8.322,8.322,0,0,1,3.18.629,7.854,7.854,0,0,1,2.585,1.677,8.488,8.488,0,0,1,1.782,2.481,7.547,7.547,0,0,1,.664,3.04v1.328a7.64,7.64,0,0,1-.385,2.341,8.7,8.7,0,0,1-1.013,2.062,7.325,7.325,0,0,1-1.607,1.677,8.726,8.726,0,0,1-2.166,1.188l2.481,3.843,3.215,4.961Z" transform="translate(-2789.99 -1033.58)" fill="url(#n)"/><path d="M2253.007,1076.01V1070H2234v25.156h19.007v-5.94h-12.893V1085.3h10.447v-6.01h-10.447v-3.284Z" transform="translate(-2155.945 -1032.615)" fill="url(#o)"/><path d="M787,1070h18.972v5.975H787Zm16.526,9.294h0v6.01H787v-5.975h16.526ZM787,1095.156h0v-5.94h18.972v5.94Z" transform="translate(-759.502 -1032.615)" fill="url(#p)"/><path d="M4402.042,1076.01V1070H4383v25.156h19.042v-5.94h-12.928V1085.3H4399.6v-6.01h-10.482v-3.284Z" transform="translate(-4229.86 -1032.615)" fill="url(#q)"/><path d="M3569.261,1082.46v-.07h-11.53v5.835h5.485v1.957l-5.94-.035a7.176,7.176,0,0,1-2.83-.559,6.9,6.9,0,0,1-2.236-1.468,6.688,6.688,0,0,1-1.468-2.1,6.082,6.082,0,0,1-.524-2.481,6.9,6.9,0,0,1,.209-1.677,4.325,4.325,0,0,1,.734-1.572,6.359,6.359,0,0,1,2.655-2.516,7.541,7.541,0,0,1,3.459-.839,7.036,7.036,0,0,1,3.459.943,7.346,7.346,0,0,1,2.865,2.8l5.45-3.04a13.684,13.684,0,0,0-2.376-2.9,13.874,13.874,0,0,0-2.865-2.061,17.685,17.685,0,0,0-3.179-1.258,13.029,13.029,0,0,0-3.284-.419,14.084,14.084,0,0,0-6.5,1.607,12.519,12.519,0,0,0-5.031,4.787v-.035a12.231,12.231,0,0,0-1.4,3.075,11.767,11.767,0,0,0-.419,3.145,11.413,11.413,0,0,0,.978,4.717,12.147,12.147,0,0,0,2.76,4.018,13.707,13.707,0,0,0,4.228,2.8,13.5,13.5,0,0,0,5.345,1.048H3569.4v-13.7h-.14Z" transform="translate(-3420.174 -1033.58)" fill="url(#r)"/><path d="M1447.466,1061h-4.682l-4.927,10.656v5.66h-.769v-5.835L1432.058,1061H1425v25.226h5.625V1069.84l4.472,9.469h4.507l4.507-9.5v16.422h5.87V1061Z" transform="translate(-1375.211 -1023.929)" fill="url(#s)"/><path d="M1656.5,2070.98a4.291,4.291,0,0,1-1.4,3,4.9,4.9,0,0,1-3.354,1.083,4.474,4.474,0,0,1-3.564-1.537,6.209,6.209,0,0,1-1.293-4.193v-.734a6.8,6.8,0,0,1,.594-3,4.494,4.494,0,0,1,1.712-1.991,5.347,5.347,0,0,1,5.87.384,4.348,4.348,0,0,1,1.432,3.075h-2.446a2.47,2.47,0,0,0-.629-1.642,2.3,2.3,0,0,0-1.677-.524,2.021,2.021,0,0,0-1.817.873,4.92,4.92,0,0,0-.629,2.69v.908a5.28,5.28,0,0,0,.594,2.8,1.983,1.983,0,0,0,1.817.874,2.355,2.355,0,0,0,1.677-.524,2.2,2.2,0,0,0,.629-1.607h2.446Zm13.347-1.712h0a6.517,6.517,0,0,1-.629,3.04,4.567,4.567,0,0,1-4.367,2.725,5.349,5.349,0,0,1-2.621-.7,4.77,4.77,0,0,1-1.782-2.026,6.829,6.829,0,0,1-.629-3.005v-.594a7.239,7.239,0,0,1,.629-3.075,4.551,4.551,0,0,1,1.782-2.026,4.694,4.694,0,0,1,2.621-.7,5.351,5.351,0,0,1,2.62.7,4.772,4.772,0,0,1,1.782,2.026,7.027,7.027,0,0,1,.629,3.075v.524Zm-2.446-.524h0a4.989,4.989,0,0,0-.664-2.83,2.189,2.189,0,0,0-1.887-.978,2.119,2.119,0,0,0-1.887.943,4.79,4.79,0,0,0-.664,2.795v.559a4.941,4.941,0,0,0,.664,2.8,2.368,2.368,0,0,0,3.809.035,4.791,4.791,0,0,0,.664-2.8v-.559Zm9.469-5.625h0l3.04,8.56,3-8.56h3.18v11.774h-2.446v-3.214l.245-5.555-3.18,8.77h-1.677l-3.179-8.77.245,5.555v3.214h-2.446v-11.774h3.214Zm15.863,7.652h0v4.158h-2.446v-11.774h4.612a5.418,5.418,0,0,1,2.341.489,3.5,3.5,0,0,1,1.537,1.4,3.859,3.859,0,0,1,.559,2.027,3.332,3.332,0,0,1-1.188,2.725,4.987,4.987,0,0,1-3.284,1.013h-2.131Zm0-1.957h2.166a2.113,2.113,0,0,0,1.468-.454,1.635,1.635,0,0,0,.489-1.293,1.892,1.892,0,0,0-.524-1.4,1.924,1.924,0,0,0-1.4-.56H1692.7v3.7Zm19.252-5.66h0v7.756a4.051,4.051,0,0,1-1.223,3.075,4.766,4.766,0,0,1-3.319,1.118,4.718,4.718,0,0,1-3.284-1.083,3.894,3.894,0,0,1-1.223-3v-7.861h2.446v7.791a1.91,1.91,0,0,0,2.1,2.2c1.363,0,2.061-.734,2.1-2.167v-7.861h2.446Zm12.928,1.956h-3.6v9.818h-2.446v-9.818h-3.564v-1.956h9.608Zm10.552,4.717h-4.682v3.144h5.485v1.957h-7.9v-11.774h7.9v1.956h-5.45v2.8h4.682v1.887Zm8.665.8h-1.922v4.333h-2.446v-11.775h4.367a4.834,4.834,0,0,1,3.214.943,3.174,3.174,0,0,1,1.118,2.621,3.528,3.528,0,0,1-.524,2.026,3.79,3.79,0,0,1-1.572,1.293l2.551,4.822v.1h-2.62l-2.2-4.333Zm-1.922-1.957h1.957a2.076,2.076,0,0,0,1.433-.454,1.634,1.634,0,0,0,.489-1.293,1.757,1.757,0,0,0-.489-1.328,2.006,2.006,0,0,0-1.468-.489h-1.957v3.529Zm16.352,3.18h0a1.216,1.216,0,0,0-.489-1.048,6.573,6.573,0,0,0-1.747-.769,12.468,12.468,0,0,1-1.992-.8,3.3,3.3,0,0,1-1.992-2.935,2.921,2.921,0,0,1,.524-1.712,3.669,3.669,0,0,1,1.537-1.188,6.38,6.38,0,0,1,2.271-.419,5.45,5.45,0,0,1,2.236.454,3.694,3.694,0,0,1,1.537,1.292,3.608,3.608,0,0,1,.559,1.887h-2.446a1.547,1.547,0,0,0-.524-1.258,2.018,2.018,0,0,0-1.433-.454,2.237,2.237,0,0,0-1.4.384,1.224,1.224,0,0,0-.489.978,1.194,1.194,0,0,0,.594.978,7.438,7.438,0,0,0,1.712.734,7.473,7.473,0,0,1,3,1.538,3.007,3.007,0,0,1,.943,2.306,2.84,2.84,0,0,1-1.153,2.411,4.979,4.979,0,0,1-3.109.874,6.677,6.677,0,0,1-2.481-.489,3.878,3.878,0,0,1-1.712-1.363,3.691,3.691,0,0,1-.594-1.992h2.446c0,1.293.769,1.957,2.341,1.957a2.343,2.343,0,0,0,1.363-.35,1.177,1.177,0,0,0,.489-.979h0Z" transform="translate(-1589.351 -1990.829)" fill="url(#t)"/></svg>