<svg xmlns="http://www.w3.org/2000/svg" xmlns:xlink="http://www.w3.org/1999/xlink" width="392.833" height="396" viewBox="0 0 392.833 396"><defs><linearGradient id="a" x1="0.772" y1="0.198" x2="0.23" y2="0.947" gradientUnits="objectBoundingBox"><stop offset="0" stop-color="#393185"/><stop offset="1" stop-color="#008dd2"/></linearGradient></defs><g transform="translate(-0.049 -0.432)"><g transform="translate(0.049 0.432)"><g transform="translate(0 0)"><path d="M520.807,721.026a97.928,97.928,0,0,1-24.372-26.239A103.057,103.057,0,0,0,520.807,721.026Zm79.236-245.59c-2.593-2.7-.415-14.1-13.379-22.091-8.09-4.978-19.913-4.667-27.9.622-20.639,13.586-2.074,36.714-18.876,53.2a30.8,30.8,0,0,1-25.721,8.608c-12.031-1.763-16.387-7.986-21.572-15.142-9.541-13.171-35.884-17.009-51.96-5.5-13.068,9.334-21.054,31.425-9.853,50.819,2.7,4.771,28.625,24.891,9.956,50.508-16.179,22.3-33.188,5.393-47.085,25.1-7.052,9.956-9.438,36.921,24.787,40.137,14,135.655,199.231,189.585,289.356,75.4,23.128-29.35,40.033-76.228,31.943-125.7-3.941-23.854-11.512-41.07-21.987-58.908C678.035,484.874,608.237,484.044,600.043,475.436Z" transform="translate(-348.962 -403.194)" fill-rule="evenodd" fill="url(#a)"/><path d="M1477.061,560.778c-27.173,6.638-16.386,46.048,9.645,39.514C1511.286,594.174,1503.819,554.245,1477.061,560.778Z" transform="translate(-1309.675 -502.019)" fill="#023399" fill-rule="evenodd"/><path d="M476.736,1426.735c-26.654,6.534-16.7,46.67,10.579,39.307C510.339,1459.819,503.494,1420.2,476.736,1426.735Z" transform="translate(-413.27 -1278.161)" fill="#023399" fill-rule="evenodd"/><path d="M601.625,525.654c-21.053,6.43-9.853,34.64,8.919,27.587C626.931,547.122,619.464,520.157,601.625,525.654Z" transform="translate(-529.032 -470.524)" fill="#023399" fill-rule="evenodd"/><path d="M10.208,1241.155c-18.357,6.119-9.749,33.4,9.23,27.691C37.173,1263.453,29.083,1234.829,10.208,1241.155Z" transform="translate(-0.049 -1111.664)" fill="#023399" fill-rule="evenodd"/><path d="M1944.028,1.113c-20.431,5.808-9.853,34.64,9.023,27.587C1968.5,22.893,1962.593-4.176,1944.028,1.113Z" transform="translate(-1732.461 -0.432)" fill="#023399" fill-rule="evenodd"/></g><path d="M1121.789,1083a134.532,134.532,0,0,1-41.692,265.814h-.1a134.594,134.594,0,0,1-112.009-153.8l1.141.207h1.245v.207a132.265,132.265,0,0,0,110.038,151.108h0a132.178,132.178,0,0,0,41.07-261.147l.415-2.385Z" transform="translate(-866.144 -970.725)" fill="#fefefe"/><path d="M977.52,1996.512,963,1993.193l1.763-8.193,2.074.519-1.348,5.7,3.63.83,1.348-5.7,2.074.415-1.348,5.808,4.771,1.037,1.245-5.7,2.074.415Z" transform="translate(-863.13 -1779.177)" fill="#fefefe"/><path d="M1049.853,1843.935l-.83,2.074-9.023-3.526.726-1.97,1.452.622a4.044,4.044,0,0,1-.83-1.97,3.312,3.312,0,0,1,.311-1.971,3.065,3.065,0,0,1,1.141-1.556,3.214,3.214,0,0,1,1.763-.519,4.175,4.175,0,0,1-.726-2.074,3.313,3.313,0,0,1,.311-1.971,3.516,3.516,0,0,1,.933-1.452,2.315,2.315,0,0,1,1.348-.622h.83c.311.1.726.208,1.245.415l.726.311,5.5,2.178-.83,2.074-4.563-1.763a4.617,4.617,0,0,0-2.489-.519c-.519.1-.83.519-1.141,1.141a1.874,1.874,0,0,0,.1,1.97,6.407,6.407,0,0,0,2.489,1.556l4.045,1.556-.83,2.074-4.563-1.763a5.487,5.487,0,0,0-2.489-.519,1.583,1.583,0,0,0-1.141,1.141,2.631,2.631,0,0,0-.207,1.245,5.052,5.052,0,0,0,.415,1.141,2.751,2.751,0,0,0,.622.519,9.276,9.276,0,0,0,1.659.726l4.045,1.556Z" transform="translate(-932.145 -1639.356)" fill="#fefefe"/><path d="M1129.578,1723.516l-3.63,6.845a3.037,3.037,0,0,0,2.282.311,2.253,2.253,0,0,0,1.556-1.348,2.93,2.93,0,0,0,.415-1.763,3.553,3.553,0,0,0-.726-1.763l1.763-1.141a5.018,5.018,0,0,1,.933,2.8,5.645,5.645,0,0,1-.726,2.8,4.859,4.859,0,0,1-6.949,2.074,5.215,5.215,0,0,1-2.593-3.008,4.861,4.861,0,0,1,.415-3.941,4.711,4.711,0,0,1,2.9-2.593,5.582,5.582,0,0,1,3.941.622l.415.207Zm-2.385,1.348a2.57,2.57,0,0,0-1.763,0,3.35,3.35,0,0,0-1.348,1.348,2.8,2.8,0,0,0-.311,1.763,3.128,3.128,0,0,0,.933,1.556Z" transform="translate(-1005.336 -1544.036)" fill="#fefefe"/><path d="M1172.489,1635.356a3.527,3.527,0,0,1-.726-1.556,2.592,2.592,0,0,1,.415-1.452,4.508,4.508,0,0,1,.622-.726c.207-.208.519-.415.726-.622l1.141,1.659-.622.311c-.207.1-.311.311-.519.622a1.577,1.577,0,0,0-.1,1.763,5.6,5.6,0,0,0,2.282,1.97l3.63,2.282-1.141,1.867-8.193-5.186,1.141-1.867,1.348.83Z" transform="translate(-1048.662 -1461.891)" fill="#fefefe"/><path d="M1228.406,1548.563a3.839,3.839,0,0,0-2.282-.933,2.2,2.2,0,0,0-1.867,1.037,2.225,2.225,0,0,0-.519,2.074,4.43,4.43,0,0,0,3.734,3.008,2.2,2.2,0,0,0,1.867-1.037,2.54,2.54,0,0,0,.519-2.074A3.838,3.838,0,0,0,1228.406,1548.563Zm4.563,1.037c1.452,1.141,2.385,2.178,2.489,3.215a5.367,5.367,0,0,1-1.452,3.734,5.6,5.6,0,0,1-2.593,1.97,2.649,2.649,0,0,1-2.489-.415l1.452-1.867a1.113,1.113,0,0,0,1.141.1,1.93,1.93,0,0,0,1.141-.933,2.471,2.471,0,0,0,.726-1.971,3.1,3.1,0,0,0-1.245-1.763l-1.037-.83a3.81,3.81,0,0,1,.1,1.867,3.594,3.594,0,0,1-.83,1.659,3.939,3.939,0,0,1-3.111,1.659,5.69,5.69,0,0,1-3.734-1.452,5.308,5.308,0,0,1-2.178-3.215,3.89,3.89,0,0,1,.83-3.319,3.7,3.7,0,0,1,1.659-1.245,2.891,2.891,0,0,1,1.867-.1l-1.245-.933,1.348-1.763,7.156,5.6Z" transform="translate(-1094.623 -1383.914)" fill="#fefefe"/><path d="M1310.578,1466.651l-5.082,5.808a3.805,3.805,0,0,0,2.074.83,2.356,2.356,0,0,0,1.867-.933,2.823,2.823,0,0,0,.83-1.659,4.124,4.124,0,0,0-.207-1.867l1.97-.726a5.827,5.827,0,0,1,.311,2.9,5.691,5.691,0,0,1-1.348,2.593,5.188,5.188,0,0,1-3.526,1.867,4.9,4.9,0,0,1-3.734-1.452,5.188,5.188,0,0,1-1.867-3.526,4.8,4.8,0,0,1,1.348-3.734,5.189,5.189,0,0,1,3.422-1.867,4.588,4.588,0,0,1,3.63,1.556l.311.311Zm-2.593.726a2.256,2.256,0,0,0-1.763-.415,2.954,2.954,0,0,0-1.659,1.037,2.375,2.375,0,0,0-.726,1.659,3.306,3.306,0,0,0,.622,1.763l3.526-3.941Z" transform="translate(-1166.839 -1312.995)" fill="#fefefe"/><path d="M1423.694,1278.867a9.077,9.077,0,0,0-2.489.311,5.489,5.489,0,0,0-2.178,1.141,5.84,5.84,0,0,0-2.178,3.734,5.434,5.434,0,0,0,1.348,4.148,5.618,5.618,0,0,0,3.63,2.178,5,5,0,0,0,3.941-1.037,5.127,5.127,0,0,0,1.659-1.971,8.858,8.858,0,0,0,.933-2.489l1.659,2.178a6.945,6.945,0,0,1-1.037,2.178,7.106,7.106,0,0,1-1.763,1.763,9.48,9.48,0,0,1-2.8,1.556,7.463,7.463,0,0,1-3.008.311,7.35,7.35,0,0,1-2.9-.933,8.432,8.432,0,0,1-3.837-4.874,8.032,8.032,0,0,1,.726-5.912,9.049,9.049,0,0,1,2.074-2.385,11.664,11.664,0,0,1,2.178-1.245,10.644,10.644,0,0,1,2.489-.519l1.452,1.97Z" transform="translate(-1267.717 -1144.605)" fill="#fefefe"/><path d="M1562.086,1252.958a3.429,3.429,0,0,0-1.971-1.452,2.921,2.921,0,0,0-2.282.311,2.4,2.4,0,0,0-1.245,1.97,2.852,2.852,0,0,0,.519,2.385,3.429,3.429,0,0,0,1.971,1.452,2.921,2.921,0,0,0,2.282-.311,2.4,2.4,0,0,0,1.245-1.971A3.27,3.27,0,0,0,1562.086,1252.958Zm-6.949,4.46a4.884,4.884,0,0,1-.622-3.941,7.371,7.371,0,0,1,.83-1.867,9.606,9.606,0,0,1,1.452-1.452,6.628,6.628,0,0,1,1.97-.83,6.958,6.958,0,0,1,2.074,0,3.842,3.842,0,0,1,1.867.83,4.519,4.519,0,0,1,1.348,1.452,4.657,4.657,0,0,1,.726,1.867,4.237,4.237,0,0,1-.1,1.97,6.627,6.627,0,0,1-.83,1.971,9.606,9.606,0,0,1-1.452,1.452,4.656,4.656,0,0,1-1.867.726,6.951,6.951,0,0,1-2.074,0,3.841,3.841,0,0,1-1.867-.83,6.425,6.425,0,0,1-1.452-1.452Z" transform="translate(-1393.144 -1119.733)" fill="#fefefe"/><path d="M1656.43,1171.9l-1.97,1.037-4.46-8.608,1.867-.933.726,1.452a4.9,4.9,0,0,1,.622-1.97,4.07,4.07,0,0,1,1.556-1.348,3.242,3.242,0,0,1,1.867-.415,2.67,2.67,0,0,1,1.659.726,5.419,5.419,0,0,1,.726-2.074,5.042,5.042,0,0,1,1.556-1.348,3.284,3.284,0,0,1,1.659-.415,2.381,2.381,0,0,1,1.452.415,2.748,2.748,0,0,1,.622.519,4.527,4.527,0,0,1,.622,1.037l.311.726,2.7,5.186-1.971,1.037-2.282-4.356a5.409,5.409,0,0,0-1.556-2.074,1.685,1.685,0,0,0-1.556.1,2.251,2.251,0,0,0-1.245,1.556,5.122,5.122,0,0,0,.83,2.8l1.971,3.941-1.971,1.037-2.282-4.356a4.035,4.035,0,0,0-1.556-1.971,1.609,1.609,0,0,0-1.659.1,2.449,2.449,0,0,0-.933.83,3.716,3.716,0,0,0-.415,1.141,2.283,2.283,0,0,0,.1.83,13.282,13.282,0,0,0,.726,1.659l1.97,3.941Z" transform="translate(-1478.88 -1037.946)" fill="#fefefe"/><path d="M1826.526,1121.815a3.954,3.954,0,0,0,1.452,2.074,2.284,2.284,0,0,0,2.178.207,2.085,2.085,0,0,0,1.556-1.348,3.48,3.48,0,0,0-.1-2.489,3.954,3.954,0,0,0-1.452-2.074,2.611,2.611,0,0,0-2.178-.207,2.085,2.085,0,0,0-1.556,1.348,3.206,3.206,0,0,0,.1,2.385Zm.83,9.645L1823,1117.977l2.074-.726.519,1.556a3.766,3.766,0,0,1,.726-1.763,4.337,4.337,0,0,1,1.763-1.141,3.64,3.64,0,0,1,3.423.415,5.879,5.879,0,0,1,2.282,3.215,6.051,6.051,0,0,1,.1,4.045,4.452,4.452,0,0,1-4.46,2.489,3.409,3.409,0,0,1-1.659-.726l1.763,5.5-2.074.726Z" transform="translate(-1633.938 -999.998)" fill="#fefefe"/><path d="M1944.178,1081.556l1.245,5.289a2.709,2.709,0,0,0,1.037,1.867,2.469,2.469,0,0,0,1.971.207c.83-.207,1.452-.519,1.659-1.037a2.722,2.722,0,0,0,.1-2.074l-1.245-5.289,2.178-.519,1.037,4.667a5.978,5.978,0,0,1-.208,4.148,5.8,5.8,0,0,1-6.949,1.556c-.933-.622-1.556-1.867-1.971-3.734L1942,1081.97l2.178-.519Z" transform="translate(-1740.596 -968.036)" fill="#fefefe"/><path d="M2057.215,1047.483l-1.245-7.571-1.659.311-.311-1.97,1.659-.207-.622-3.63,2.178-.415.622,3.63,1.659-.311.311,1.971-1.659.207,1.245,7.675Z" transform="translate(-1840.981 -926.807)" fill="#fefefe"/><path d="M2137.9,1059.019l-7.675.622a3.232,3.232,0,0,0,.933,2.074,2.524,2.524,0,0,0,1.97.622,3.279,3.279,0,0,0,1.763-.622,3.794,3.794,0,0,0,1.141-1.556l1.97.83a4.576,4.576,0,0,1-1.867,2.282,5.607,5.607,0,0,1-2.8.933,4.887,4.887,0,0,1-3.837-1.141,4.82,4.82,0,0,1-1.659-3.63,5.244,5.244,0,0,1,8.4-4.563,4.946,4.946,0,0,1,1.556,3.63v.415Zm-2.385-1.348a2.223,2.223,0,0,0-.934-1.556,3.326,3.326,0,0,0-1.867-.415,3.478,3.478,0,0,0-1.659.622,2.818,2.818,0,0,0-.83,1.659l5.289-.415Z" transform="translate(-1907.141 -944.566)" fill="#fefefe"/><path d="M2253.074,1053.97a2.952,2.952,0,0,1,.933-1.452,2.248,2.248,0,0,1,1.452-.519,2.874,2.874,0,0,1,.933.1l.933.311-.726,1.867-.622-.311a1.54,1.54,0,0,0-.726-.1,1.608,1.608,0,0,0-1.556.933,7.1,7.1,0,0,0-.415,3.008l.1,4.252h-2.178l-.208-9.645h2.178v1.556Z" transform="translate(-2017.55 -942.94)" fill="#fefefe"/><path d="M2314.207,1060.882l1.867-.83a2.047,2.047,0,0,0,.622,1.141,2.635,2.635,0,0,0,1.348.519c.519,0,.933,0,1.141-.207a1.4,1.4,0,0,0,.519-.933c0-.519-.415-1.037-1.348-1.452a2.226,2.226,0,0,1-.726-.415,7.69,7.69,0,0,1-2.074-1.452,2.5,2.5,0,0,1,.622-3.63,4.687,4.687,0,0,1,2.8-.622,3.641,3.641,0,0,1,1.867.622,2.422,2.422,0,0,1,1.037,1.245l-1.659.933a1.862,1.862,0,0,0-.519-.726,1.673,1.673,0,0,0-.933-.311,1.705,1.705,0,0,0-1.037.207.783.783,0,0,0-.415.726q0,.778,1.556,1.556a6.111,6.111,0,0,0,.83.415,4.154,4.154,0,0,1,1.763,1.348,2.361,2.361,0,0,1,.415,1.659,2.951,2.951,0,0,1-1.245,2.178,4.5,4.5,0,0,1-3.008.622,4.565,4.565,0,0,1-2.282-.726,3.375,3.375,0,0,1-1.348-1.763Z" transform="translate(-2074.016 -943.836)" fill="#fefefe"/><path d="M1371.437,1455.18a105.36,105.36,0,0,0-17.009,16.283c-26.032,32.151-30.6,76.539-9.749,113.046a128.2,128.2,0,0,0,12.031,16.905c.726.726,1.229,1.348,2.086,2.17,9.645,10.89,25.19,20.854,39.917,25.832,17.424,5.912,39.307,7.467,57.871,2.178,13.586-3.837,28-10.579,38.373-19.6a104.73,104.73,0,0,0,16.179-17.009c1.245-1.659,2.178-3.008,3.319-4.771,2.282-3.319,10.371-17.216,10.786-21.883l-23.854.1c-5.186,9.853-6.741,11.823-13.69,19.913-4.252,4.978-13.171,11.408-18.875,14.727a79.4,79.4,0,0,1-24.891,8.712,84.857,84.857,0,0,1-16.283.933c-6.741-.1-11.927-1.867-14.727-1.971l-4.667-1.452c-5.7-1.348-13.9-5.6-18.253-8.3a65.013,65.013,0,0,1-7.778-5.6c-11.408-9.645-21.883-22.817-26.032-40.033-3.941-16.49-3.526-30.6,1.867-46.256,6.119-17.424,20.328-34.225,36.714-42.418,20.639-10.371,43.87-12.238,65.235-3.526a77.772,77.772,0,0,1,44.8,47.708c1.452,4.252,2.074,7.986,2.7,10.06l.208,3.008-11.927.1h-52.271c-9.23,0-16.905-1.659-21.468,4.771-4.874,6.741-.519,14.623,5.289,16.8,3.63,1.348,43.663.622,51.13.622,3.837,0,49.159.311,51.752-.1,1.556-6.015.519-19.809-.415-25.928a93.136,93.136,0,0,0-5.808-21.779c-6.223-14.727-11.512-22.4-21.676-33.188-8.4-8.919-18.564-15.972-32.566-22.194-11.616-5.186-32.151-9.334-46.67-7.364C1421.115,1435.786,1398.5,1436.526,1371.437,1455.18Z" transform="translate(-1193.473 -1286.382)" fill="#fefefe" fill-rule="evenodd"/><path d="M1858.663,1951.867c-9.127.311-18.668,0-27.9,0-14.1,0-23.646,1.763-35.366-6.119a23.344,23.344,0,0,1-3.837-3.215c-19.6-19.394-9.23-49.056,13.379-55.8,7.156-2.178,18.046-1.348,26.135-1.348h27.587c-1.452-3.215-8.089-9.023-10.993-11.3-14.623-11.1-35.262-13.9-52.582-7.467A55.294,55.294,0,0,0,1759,1918.887c.207,39.929,39.929,64.509,74.465,51.856a53.271,53.271,0,0,0,14.416-7.882c3.941-3.008,2.9-2.489,5.808-5.082C1855.344,1956.223,1857.937,1953.63,1858.663,1951.867Z" transform="translate(-1576.572 -1670.023)" fill="#fff" fill-rule="evenodd"/></g></g></svg>